{
.appVersion = "3151";
.formatVersion = 3;
classes = (
{
code = "quoteleft quotedblleft";
name = _kernquoteleft;
},
{
code = "quoteright quotedblright";
name = _kernquoteright;
},
{
code = "fraction slash";
name = slash;
},
{
code = "zero one two three four five six seven eight nine";
name = all_figures;
}
);
customParameters = (
{
name = trademark;
value = "Bruno Ace SC is a trademark of Astigmatic (AOETI).";
},
{
name = "Use Typo Metrics";
value = 1;
},
{
name = fsType;
value = (
);
}
);
date = "2023-03-23 13:39:58 +0000";
familyName = "Bruno Ace SC";
featurePrefixes = (
{
code = "#> languagesystem
languagesystem DFLT dflt;
languagesystem latn dflt;
#< languagesystem
";
name = xxxx;
}
);
features = (
{
code = "feature sups;
feature liga;
feature ordn;
feature frac;";
tag = aalt;
},
{
code = "@_kernA_leftpair = [A Agrave Aacute Acircumflex Atilde Adieresis Aring Abreve Aogonek Amacron];
@_kernA_rightpair = [A AE Agrave Aacute Acircumflex Atilde Adieresis Aring Abreve Aogonek Amacron AEacute];
@_kernC = [C Ccedilla Cacute Ccircumflex Cdotaccent Ccaron];
@_kernD = [D Eth Dcaron Dcroat];
@_kernE = [E Egrave Eacute Ecircumflex Edieresis Ebreve Edotaccent Eogonek Ecaron Emacron];
@_kernF = [F];
@_kernG = [G Gcircumflex Gbreve Gdotaccent Gcommaaccent];
@_kernH = [H Hcircumflex Hbar];
@_kernI = [I Igrave Iacute Icircumflex Idieresis Itilde Ibreve Iogonek Idotaccent Imacron];
@_kernJ = [J Jcircumflex];
@_kernK = [K Kcommaaccent];
@_kernL = [L Lslash Lacute Lcommaaccent];
@_kernM = [M];
@_kernN = [N Ntilde Nacute Ncaron Ncommaaccent Eng];
@_kernO_leftpair = [O Ograve Oacute Ocircumflex Otilde Odieresis Oslash Obreve Ohungarumlaut Oslashacute Omacron];
@_kernO_rightpair = [O Ograve Oacute Ocircumflex Otilde Odieresis Oslash Obreve Ohungarumlaut Oslashacute Omacron OE];
@_kernP = [P];
@_kernR = [R Racute Rcaron Rcommaaccent];
@_kernS = [S Scaron Sacute Scircumflex Scedilla];
@_kernT = [T Tcaron Tcommaaccent Tbar];

glyphs = (
{
glyphname = A;
kernLeft = _kernA_rightpair;
kernRight = _kernA_leftpair;
layers = (
{
layerId = "E5B5FB99-9938-4E00-AE85-C3C14992734E";
shapes = (
{
closed = 1;
nodes = (
(880,700,l),
(421,700,ls),
(228,700,o),
(72,543,o),
(72,350,cs),
(72,0,l),
(172,0,l),
(172,350,ls),
(172,488,o),
(284,600,o),
(421,600,cs),
(780,600,l),
(780,300,l),
(221,300,l),
(221,200,l),
(780,200,l),
(780,0,l),
(880,0,l)
);
}
);
width = 964;
}
);
unicode = 65;
},
{
glyphname = Aogonek;
kernLeft = _kernA_rightpair;
kernRight = _kernA_leftpair;
layers = (
{
layerId = "E5B5FB99-9938-4E00-AE85-C3C14992734E";
shapes = (
{
closed = 1;
nodes = (
(880,700,l),
(421,700,ls),
(228,700,o),
(72,543,o),
(72,350,cs),
(72,0,l),
(172,0,l),
(172,350,ls),
(172,488,o),
(284,600,o),
(421,600,cs),
(780,600,l),
(780,300,l),
(221,300,l),
(221,200,l),
(780,200,l),
(780,0,l),
(791,0,l),
(761,-23,o),
(750,-61,o),
(750,-85,cs),
(750,-134,o),
(791,-151,o),
(841,-151,cs),
(894,-151,o),
(922,-140,o),
(940,-135,c),
(940,-70,l),
(922,-77,o),
(886,-88,o),
(863,-88,cs),
(836,-88,o),
(825,-81,o),
(825,-64,cs),
(825,-44,o),
(838,-19,o),
(861,0,c),
(880,0,l)
);
}
);
width = 964;
}
);
unicode = 260;
},
{
glyphname = AE;
kernLeft = _kernA_rightpair;
layers = (
{
layerId = "E5B5FB99-9938-4E00-AE85-C3C14992734E";
shapes = (
{
closed = 1;
nodes = (
(1505,100,l),
(881,100,l),
(881,600,l),
(1505,600,l),
(1505,700,l),
(421,700,ls),
(228,700,o),
(72,543,o),
(72,350,cs),
(72,0,l),
(172,0,l),
(172,350,ls),
(172,488,o),
(284,600,o),
(421,600,cs),
(780,600,l),
(780,300,l),
(221,300,l),
(221,200,l),
(780,200,l),
(780,0,l),
(1505,0,l)
);
},
{
closed = 1;
nodes = (
(1420,400,l),
(931,400,l),
(931,300,l),
(1420,300,l)
);
}
);
width = 1545;
}
);
unicode = 198;
},
{
glyphname = B;
layers = (
{
layerId = "E5B5FB99-9938-4E00-AE85-C3C14992734E";
shapes = (
{
closed = 1;
nodes = (
(908,287,o),
(852,361,o),
(774,388,c),
(795,420,o),
(808,458,o),
(808,500,cs),
(808,610,o),
(718,700,o),
(608,700,cs),
(84,700,l),
(84,0,l),
(184,0,l),
(184,600,l),
(608,600,ls),
(663,600,o),
(708,555,o),
(708,500,cs),
(708,445,o),
(663,400,o),
(608,400,cs),
(234,400,l),
(234,300,l),
(708,300,ls),
(763,300,o),
(808,255,o),
(808,200,cs),
(808,145,o),
(763,100,o),
(708,100,cs),
(234,100,l),
(234,0,l),
(708,0,ls),
(818,0,o),
(908,89,o),
(908,200,cs)
);
}
);
width = 941;
}
);
unicode = 66;
},
{
glyphname = C;
kernLeft = _kernC;
kernRight = _kernC;
layers = (
{
layerId = "E5B5FB99-9938-4E00-AE85-C3C14992734E";
shapes = (
{
closed = 1;
nodes = (
(817,100,l),
(366,100,ls),
(228,100,o),
(144,212,o),
(144,350,cs),
(144,488,o),
(228,600,o),
(366,600,cs),
(817,600,l),
(817,700,l),
(366,700,ls),
(172,700,o),
(44,543,o),
(44,350,cs),
(44,156,o),
(172,0,o),
(366,0,cs),
(817,0,l)
);
}
);
width = 854;
}
);
unicode = 67;
},
{
glyphname = Ccedilla;
kernLeft = _kernC;
kernRight = _kernC;
layers = (
{
layerId = "E5B5FB99-9938-4E00-AE85-C3C14992734E";
shapes = (
{
closed = 1;
nodes = (
(817,100,l),
(366,100,ls),
(228,100,o),
(144,212,o),
(144,350,cs),
(144,488,o),
(228,600,o),
(366,600,cs),
(817,600,l),
(817,700,l),
(366,700,ls),
(172,700,o),
(44,543,o),
(44,350,cs),
(44,156,o),
(172,0,o),
(366,0,cs),
(455,0,l),
(428,-73,l),
(438,-71,o),
(450,-69,o),
(461,-69,cs),
(476,-69,o),
(502,-72,o),
(502,-87,cs),
(502,-99,o),
(482,-105,o),
(456,-105,cs),
(430,-105,o),
(403,-98,o),
(385,-89,c),
(385,-151,l),
(403,-153,o),
(416,-159,o),
(464,-159,cs),
(516,-159,o),
(575,-142,o),
(575,-88,cs),
(575,-35,o),
(529,-24,o),
(501,-24,c),
(510,0,l),
(817,0,l)
);
}
);
width = 854;
}
);
unicode = 199;
},
{
glyphname = D;
kernLeft = _kernD;
kernRight = _kernD;
layers = (
{
layerId = "E5B5FB99-9938-4E00-AE85-C3C14992734E";
shapes = (
{
closed = 1;
nodes = (
(909,543,o),
(780,700,o),
(587,700,cs),
(84,700,l),
(84,0,l),
(184,0,l),
(184,600,l),
(587,600,ls),
(725,600,o),
(809,488,o),
(809,350,cs),
(809,212,o),
(725,100,o),
(587,100,cs),
(234,100,l),
(234,0,l),
(587,0,ls),
(780,0,o),
(909,156,o),
(909,350,cs)
);
}
);
width = 953;
}
);
unicode = 68;
},
{
glyphname = Eth;
kernLeft = _kernD;
kernRight = _kernD;
layers = (
{
layerId = "E5B5FB99-9938-4E00-AE85-C3C14992734E";
shapes = (
{
closed = 1;
nodes = (
(549,400,l),
(229,400,l),
(229,600,l),
(632,600,ls),
(770,600,o),
(854,488,o),
(854,350,cs),
(854,212,o),
(770,100,o),
(632,100,cs),
(279,100,l),
(279,0,l),
(632,0,ls),
(825,0,o),
(954,156,o),
(954,350,cs),
(954,543,o),
(825,700,o),
(632,700,cs),
(129,700,l),
(129,400,l),
(-1,400,l),
(-1,300,l),
(129,300,l),
(129,0,l),
(229,0,l),
(229,300,l),
(549,300,l)
);
}
);
width = 998;
}
);
unicode = 208;
},
{
glyphname = E;
kernLeft = _kernE;
kernRight = _kernE;
layers = (
{
layerId = "E5B5FB99-9938-4E00-AE85-C3C14992734E";
shapes = (
{
closed = 1;
nodes = (
(808,100,l),
(184,100,l),
(184,600,l),
(808,600,l),
(808,700,l),
(84,700,l),
(84,0,l),
(808,0,l)
);
},
{
closed = 1;
nodes = (
(723,400,l),
(234,400,l),
(234,300,l),
(723,300,l)
);
}
);
width = 848;
}
);
unicode = 69;
},
{
glyphname = Eogonek;
kernLeft = _kernE;
kernRight = _kernE;
layers = (
{
layerId = "E5B5FB99-9938-4E00-AE85-C3C14992734E";
shapes = (
{
closed = 1;
nodes = (
(808,100,l),
(184,100,l),
(184,600,l),
(808,600,l),
(808,700,l),
(84,700,l),
(84,0,l),
(659,0,l),
(629,-23,o),
(618,-61,o),
(618,-85,cs),
(618,-134,o),
(659,-151,o),
(709,-151,cs),
(762,-151,o),
(790,-140,o),
(808,-135,c),
(808,-70,l),
(790,-77,o),
(754,-88,o),
(731,-88,cs),
(704,-88,o),
(693,-81,o),
(693,-64,cs),
(693,-44,o),
(706,-19,o),
(729,0,c),
(808,0,l)
);
},
{
closed = 1;
nodes = (
(723,400,l),
(234,400,l),
(234,300,l),
(723,300,l)
);
}
);
width = 848;
}
);
unicode = 280;
},
{
glyphname = F;
kernLeft = _kernF;
kernRight = _kernF;
layers = (
{
layerId = "E5B5FB99-9938-4E00-AE85-C3C14992734E";
shapes = (
{
closed = 1;
nodes = (
(809,700,l),
(84,700,l),
(84,0,l),
(184,0,l),
(184,600,l),
(809,600,l)
);
},
{
closed = 1;
nodes = (
(723,400,l),
(234,400,l),
(234,300,l),
(723,300,l)
);
}
);
width = 826;
}
);
unicode = 70;
},
{
glyphname = G;
kernLeft = _kernG;
kernRight = _kernG;
layers = (
{
layerId = "E5B5FB99-9938-4E00-AE85-C3C14992734E";
shapes = (
{
closed = 1;
nodes = (
(817,400,l),
(293,400,l),
(293,300,l),
(717,300,l),
(717,100,l),
(366,100,ls),
(228,100,o),
(144,212,o),
(144,350,cs),
(144,488,o),
(228,600,o),
(366,600,cs),
(817,600,l),
(817,700,l),
(366,700,ls),
(172,700,o),
(44,543,o),
(44,350,cs),
(44,156,o),
(172,0,o),
(366,0,cs),
(817,0,l)
);
}
);
width = 880;
}
);
unicode = 71;
},
{
glyphname = H;
kernLeft = _kernH;
kernRight = _kernH;
layers = (
{
layerId = "E5B5FB99-9938-4E00-AE85-C3C14992734E";
shapes = (
{
closed = 1;
nodes = (
(823,700,l),
(723,700,l),
(723,400,l),
(234,400,l),
(234,300,l),
(723,300,l),
(723,0,l),
(823,0,l)
);
},
{
closed = 1;
nodes = (
(184,700,l),
(84,700,l),
(84,0,l),
(184,0,l)
);
}
);
width = 907;
}
);
unicode = 72;
},
{
glyphname = Hbar;
kernLeft = _kernH;
kernRight = _kernH;
layers = (
{
layerId = "E5B5FB99-9938-4E00-AE85-C3C14992734E";
shapes = (
{
closed = 1;
nodes = (
(184,700,l),
(84,700,l),
(84,0,l),
(184,0,l),
(184,470,l),
(681,470,l),
(681,570,l),
(184,570,l)
);
},
{
closed = 1;
nodes = (
(823,700,l),
(723,700,l),
(723,400,l),
(234,400,l),
(234,300,l),
(723,300,l),
(723,0,l),
(823,0,l)
);
}
);
width = 907;
}
);
unicode = 294;
},
{
glyphname = I;
kernLeft = _kernI;
kernRight = _kernI;
layers = (
{
layerId = "E5B5FB99-9938-4E00-AE85-C3C14992734E";
shapes = (
{
closed = 1;
nodes = (
(184,700,l),
(84,700,l),
(84,0,l),
(184,0,l)
);
}
);
width = 268;
}
);
unicode = 73;
},
{
glyphname = Iogonek;
kernLeft = _kernI;
kernRight = _kernI;
layers = (
{
layerId = "E5B5FB99-9938-4E00-AE85-C3C14992734E";
shapes = (
{
closed = 1;
nodes = (
(184,700,l),
(84,700,l),
(84,0,l),
(95,0,l),
(65,-23,o),
(54,-61,o),
(54,-85,cs),
(54,-134,o),
(95,-151,o),
(145,-151,cs),
(198,-151,o),
(226,-140,o),
(244,-135,c),
(244,-70,l),
(226,-77,o),
(190,-88,o),
(167,-88,cs),
(140,-88,o),
(129,-81,o),
(129,-64,cs),
(129,-44,o),
(142,-19,o),
(165,0,c),
(184,0,l)
);
}
);
width = 268;
}
);
unicode = 302;
},
{
glyphname = J;
kernLeft = _kernJ;
kernRight = _kernJ;
layers = (
{
layerId = "E5B5FB99-9938-4E00-AE85-C3C14992734E";
shapes = (
{
closed = 1;
nodes = (
(802,700,l),
(37,700,l),
(37,600,l),
(702,600,l),
(702,350,ls),
(702,212,o),
(590,100,o),
(452,100,cs),
(37,100,l),
(37,0,l),
(452,0,ls),
(646,0,o),
(802,156,o),
(802,350,cs)
);
}
);
width = 874;
}
);
unicode = 74;
},
{
glyphname = K;
kernLeft = _kernK;
kernRight = _kernK;
layers = (
{
layerId = "E5B5FB99-9938-4E00-AE85-C3C14992734E";
shapes = (
{
closed = 1;
nodes = (
(482,415,l),
(879,700,l),
(733,700,l),
(184,310,l),
(184,700,l),
(84,700,l),
(84,0,l),
(184,0,l),
(184,200,l),
(406,360,l),
(763,0,l),
(898,0,l)
);
}
);
width = 893;
}
);
unicode = 75;
},
{
glyphname = L;
kernLeft = _kernL;
kernRight = _kernL;
layers = (
{
layerId = "E5B5FB99-9938-4E00-AE85-C3C14992734E";
shapes = (
{
closed = 1;
nodes = (
(753,100,l),
(184,100,l),
(184,700,l),
(84,700,l),
(84,0,l),
(84,0,l),
(753,0,l)
);
}
);
width = 763;
}
);
unicode = 76;
},
{
glyphname = Lslash;
kernLeft = _kernL;
kernRight = _kernL;
layers = (
{
layerId = "E5B5FB99-9938-4E00-AE85-C3C14992734E";
shapes = (
{
closed = 1;
nodes = (
(553,488,l),
(233,390,l),
(233,700,l),
(133,700,l),
(133,359,l),
(3,320,l),
(3,210,l),
(133,249,l),
(133,0,l),
(802,0,l),
(802,100,l),
(233,100,l),
(233,280,l),
(553,378,l)
);
}
);
width = 812;
}
);
unicode = 321;
},
{
glyphname = M;
kernLeft = _kernM;
kernRight = _kernM;
layers = (
{
layerId = "E5B5FB99-9938-4E00-AE85-C3C14992734E";
shapes = (
{
closed = 1;
nodes = (
(588,350,ls),
(588,488,o),
(700,600,o),
(838,600,cs),
(892,600,l),
(892,0,l),
(992,0,l),
(992,700,l),
(838,700,ls),
(711,700,o),
(599,631,o),
(538,530,c),
(476,631,o),
(365,700,o),
(238,700,cs),
(84,700,l),
(84,0,l),
(184,0,l),
(184,600,l),
(238,600,ls),
(376,600,o),
(488,488,o),
(488,350,cs),
(488,0,l),
(588,0,l)
);
}
);
width = 1076;
}
);
unicode = 77;
},
{
glyphname = N;
kernLeft = _kernN;
kernRight = _kernN;
layers = (
{
layerId = "E5B5FB99-9938-4E00-AE85-C3C14992734E";
shapes = (
{
closed = 1;
nodes = (
(184,596,l),
(410,561,o),
(758,308,o),
(758,0,c),
(858,0,l),
(858,700,l),
(758,700,l),
(758,315,l),
(610,543,o),
(329,700,o),
(134,700,cs),
(84,700,l),
(84,0,l),
(184,0,l)
);
}
);
width = 942;
}
);
unicode = 78;
},
{
glyphname = Eng;
kernLeft = _kernN;
kernRight = _kernN;
layers = (
{
layerId = "E5B5FB99-9938-4E00-AE85-C3C14992734E";
shapes = (
{
closed = 1;
nodes = (
(858,700,l),
(758,700,l),
(758,315,l),
(610,543,o),
(329,700,o),
(134,700,cs),
(84,700,l),
(84,0,l),
(184,0,l),
(184,596,l),
(389,564,o),
(693,353,o),
(749,86,c),
(720,-20,o),
(623,-98,o),
(508,-98,cs),
(93,-98,l),
(93,-198,l),
(508,-198,ls),
(702,-198,o),
(858,-42,o),
(858,152,cs)
);
}
);
width = 942;
}
);
unicode = 330;
},
{
glyphname = O;
kernLeft = _kernO_rightpair;
kernRight = _kernO_leftpair;
layers = (
{
layerId = "E5B5FB99-9938-4E00-AE85-C3C14992734E";
shapes = (
{
closed = 1;
nodes = (
(920,543,o),
(792,700,o),
(599,700,cs),
(366,700,ls),
(172,700,o),
(44,543,o),
(44,350,cs),
(44,156,o),
(172,0,o),
(366,0,cs),
(599,0,ls),
(792,0,o),
(920,156,o),
(920,350,cs)
);
},
{
closed = 1;
nodes = (
(820,212,o),
(737,100,o),
(599,100,cs),
(366,100,ls),
(228,100,o),
(144,212,o),
(144,350,cs),
(144,488,o),
(228,600,o),
(366,600,cs),
(599,600,ls),
(737,600,o),
(820,488,o),
(820,350,cs)
);
}
);
width = 964;
}
);
unicode = 79;
},
{
glyphname = Oslash;
kernLeft = _kernO_rightpair;
kernRight = _kernO_leftpair;
layers = (
{
layerId = "E5B5FB99-9938-4E00-AE85-C3C14992734E";
shapes = (
{
closed = 1;
nodes = (
(705,700,l),
(694,686,l),
(664,695,o),
(633,700,o),
(599,700,cs),
(366,700,ls),
(172,700,o),
(44,543,o),
(44,350,cs),
(44,225,o),
(96,116,o),
(186,54,c),
(142,0,l),
(261,0,l),
(271,13,l),
(301,4,o),
(332,0,o),
(366,0,cs),
(599,0,ls),
(792,0,o),
(920,156,o),
(920,350,cs),
(920,473,o),
(867,582,o),
(779,644,c),
(824,700,l)
);
},
{
closed = 1;
nodes = (
(599,600,l),
(607,600,o),
(615,599,o),
(623,598,c),
(249,133,l),
(182,176,o),
(144,257,o),
(144,350,cs),
(144,488,o),
(228,600,o),
(366,600,cs)
);
},
{
closed = 1;
nodes = (
(820,212,o),
(737,100,o),
(599,100,cs),
(366,100,ls),
(358,100,o),
(350,101,o),
(342,101,c),
(716,566,l),
(782,523,o),
(820,442,o),
(820,350,cs)
);
}
);
width = 964;
}
);
unicode = 216;
},
{
glyphname = OE;
kernLeft = _kernO_rightpair;
layers = (
{
layerId = "E5B5FB99-9938-4E00-AE85-C3C14992734E";
shapes = (
{
closed = 1;
nodes = (
(1543,100,l),
(919,100,l),
(919,600,l),
(1543,600,l),
(1543,700,l),
(819,700,l),
(819,611,l),
(764,666,o),
(688,700,o),
(599,700,cs),
(366,700,ls),
(172,700,o),
(44,543,o),
(44,350,cs),
(44,156,o),
(172,0,o),
(366,0,cs),
(599,0,ls),
(688,0,o),
(764,33,o),
(819,88,c),
(819,0,l),
(1543,0,l)
);
},
{
closed = 1;
nodes = (
(599,600,l),
(728,600,o),
(819,489,o),
(819,350,cs),
(819,208,o),
(728,100,o),
(599,100,cs),
(366,100,ls),
(228,100,o),
(144,212,o),
(144,350,cs),
(144,488,o),
(228,600,o),
(366,600,cs)
);
},
{
closed = 1;
nodes = (
(1458,400,l),
(969,400,l),
(969,300,l),
(1458,300,l)
);
}
);
width = 1583;
}
);
unicode = 338;
},
{
glyphname = P;
kernLeft = _kernP;
kernRight = _kernP;
layers = (
{
layerId = "E5B5FB99-9938-4E00-AE85-C3C14992734E";
shapes = (
{
closed = 1;
nodes = (
(892,588,o),
(780,700,o),
(642,700,cs),
(84,700,l),
(84,0,l),
(184,0,l),
(184,600,l),
(642,600,ls),
(725,600,o),
(792,533,o),
(792,450,cs),
(792,367,o),
(725,299,o),
(642,299,cs),
(240,299,l),
(240,200,l),
(642,200,ls),
(780,200,o),
(892,312,o),
(892,450,cs)
);
}
);
width = 913;
}
);
unicode = 80;
},
{
glyphname = Thorn;
layers = (
{
layerId = "E5B5FB99-9938-4E00-AE85-C3C14992734E";
shapes = (
{
closed = 1;
nodes = (
(892,488,o),
(780,600,o),
(642,600,cs),
(184,600,l),
(184,701,l),
(84,701,l),
(84,0,l),
(184,0,l),
(184,500,l),
(642,500,ls),
(725,500,o),
(792,433,o),
(792,350,cs),
(792,267,o),
(725,199,o),
(642,199,cs),
(240,199,l),
(240,100,l),
(642,100,ls),
(780,100,o),
(892,212,o),
(892,350,cs)
);
}
);
width = 917;
}
);
unicode = 222;
},
{
glyphname = Q;
layers = (
{
layerId = "E5B5FB99-9938-4E00-AE85-C3C14992734E";
shapes = (
{
closed = 1;
nodes = (
(849,-84,l),
(732,28,l),
(848,82,o),
(920,205,o),
(920,350,cs),
(920,543,o),
(792,700,o),
(599,700,cs),
(366,700,ls),
(172,700,o),
(44,543,o),
(44,350,cs),
(44,156,o),
(172,0,o),
(366,0,cs),
(599,0,ls),
(607,0,o),
(616,0,o),
(624,1,c),
(714,-84,l)
);
},
{
closed = 1;
nodes = (
(820,231,o),
(758,131,o),
(652,106,c),
(565,191,l),
(425,191,l),
(520,100,l),
(366,100,ls),
(228,100,o),
(144,212,o),
(144,350,cs),
(144,488,o),
(228,600,o),
(366,600,cs),
(599,600,ls),
(737,600,o),
(820,488,o),
(820,350,cs)
);
}
);
width = 964;
}
);
unicode = 81;
},
{
glyphname = R;
kernLeft = _kernR;
kernRight = _kernR;
layers = (
{
layerId = "E5B5FB99-9938-4E00-AE85-C3C14992734E";
shapes = (
{
closed = 1;
nodes = (
(682,203,l),
(801,222,o),
(892,325,o),
(892,450,cs),
(892,588,o),
(780,700,o),
(642,700,cs),
(84,700,l),
(84,0,l),
(184,0,l),
(184,600,l),
(642,600,ls),
(725,600,o),
(792,533,o),
(792,450,cs),
(792,367,o),
(725,299,o),
(642,299,cs),
(240,299,l),
(240,200,l),
(547,200,l),
(757,0,l),
(892,0,l)
);
}
);
width = 936;
}
);
unicode = 82;
},
{
glyphname = S;
kernLeft = _kernS;
kernRight = _kernS;
layers = (
{
layerId = "E5B5FB99-9938-4E00-AE85-C3C14992734E";
shapes = (
{
closed = 1;
nodes = (
(857,310,o),
(768,400,o),
(657,400,cs),
(249,400,ls),
(194,400,o),
(149,445,o),
(149,500,cs),
(149,555,o),
(194,600,o),
(249,600,cs),
(807,600,l),
(807,700,l),
(249,700,ls),
(139,700,o),
(49,610,o),
(49,500,cs),
(49,389,o),
(139,300,o),
(249,300,cs),
(657,300,ls),
(713,300,o),
(757,255,o),
(757,200,cs),
(757,145,o),
(713,100,o),
(657,100,cs),
(49,100,l),
(49,0,l),
(657,0,ls),
(768,0,o),
(857,89,o),
(857,200,cs)
);
}
);
width = 890;
}
);
unicode = 83;
},
{
glyphname = Scedilla;
kernLeft = _kernS;
kernRight = _kernS;
layers = (
{
layerId = "E5B5FB99-9938-4E00-AE85-C3C14992734E";
shapes = (
{
closed = 1;
nodes = (
(857,310,o),
(768,400,o),
(657,400,cs),
(249,400,ls),
(194,400,o),
(149,445,o),
(149,500,cs),
(149,555,o),
(194,600,o),
(249,600,cs),
(807,600,l),
(807,700,l),
(249,700,ls),
(139,700,o),
(49,610,o),
(49,500,cs),
(49,389,o),
(139,300,o),
(249,300,cs),
(657,300,ls),
(713,300,o),
(757,255,o),
(757,200,cs),
(757,145,o),
(713,100,o),
(657,100,cs),
(49,100,l),
(49,0,l),
(420,0,l),
(393,-73,l),
(403,-71,o),
(415,-69,o),
(426,-69,cs),
(441,-69,o),
(467,-72,o),
(467,-87,cs),
(467,-99,o),
(447,-105,o),
(421,-105,cs),
(395,-105,o),
(368,-98,o),
(350,-89,c),
(350,-151,l),
(368,-153,o),
(381,-159,o),
(429,-159,cs),
(481,-159,o),
(540,-142,o),
(540,-88,cs),
(540,-35,o),
(494,-24,o),
(466,-24,c),
(475,0,l),
(657,0,ls),
(768,0,o),
(857,89,o),
(857,200,cs)
);
}
);
width = 890;
}
);
unicode = 350;
},
{
glyphname = T;
kernLeft = _kernT;
kernRight = _kernT;
layers = (
{
layerId = "E5B5FB99-9938-4E00-AE85-C3C14992734E";
shapes = (
{
closed = 1;
nodes = (
(464,600,l),
(818,600,l),
(818,700,l),
(10,700,l),
(10,600,l),
(364,600,l),
(364,0,l),
(464,0,l)
);
}
);
width = 828;
}
);
unicode = 84;
},
{
glyphname = Tbar;
kernLeft = _kernT;
kernRight = _kernT;
layers = (
{
layerId = "E5B5FB99-9938-4E00-AE85-C3C14992734E";
shapes = (
{
closed = 1;
nodes = (
(614,400,l),
(464,400,l),
(464,600,l),
(818,600,l),
(818,700,l),
(10,700,l),
(10,600,l),
(364,600,l),
(364,400,l),
(214,400,l),
(214,300,l),
(364,300,l),
(364,0,l),
(464,0,l),
(464,300,l),
(614,300,l)
);
}
);
width = 828;
}
);
unicode = 358;
},
{
glyphname = U;
kernLeft = _kernU;
kernRight = _kernU;
layers = (
{
layerId = "E5B5FB99-9938-4E00-AE85-C3C14992734E";
shapes = (
{
closed = 1;
nodes = (
(833,700,l),
(733,700,l),
(733,350,ls),
(733,212,o),
(622,100,o),
(484,100,cs),
(410,100,ls),
(273,100,o),
(161,212,o),
(161,350,cs),
(161,700,l),
(61,700,l),
(61,350,ls),
(61,157,o),
(217,0,o),
(410,0,cs),
(484,0,ls),
(677,0,o),
(833,156,o),
(833,350,cs),
(834,700,l)
);
}
);
width = 894;
}
);
unicode = 85;
},
{
glyphname = Uogonek;
kernLeft = _kernU;
kernRight = _kernU;
layers = (
{
layerId = "E5B5FB99-9938-4E00-AE85-C3C14992734E";
shapes = (
{
closed = 1;
nodes = (
(834,700,l),
(733,700,l),
(733,350,ls),
(733,212,o),
(622,100,o),
(484,100,cs),
(410,100,ls),
(273,100,o),
(161,212,o),
(161,350,cs),
(161,700,l),
(61,700,l),
(61,350,ls),
(61,157,o),
(217,0,o),
(410,0,cs),
(423,0,l),
(393,-23,o),
(382,-61,o),
(382,-85,cs),
(382,-134,o),
(423,-151,o),
(473,-151,cs),
(526,-151,o),
(554,-140,o),
(572,-135,c),
(572,-70,l),
(554,-77,o),
(518,-88,o),
(495,-88,cs),
(468,-88,o),
(457,-81,o),
(457,-64,cs),
(457,-43,o),
(471,-19,o),
(494,0,c),
(682,6,o),
(833,159,o),
(833,350,cs)
);
}
);
width = 894;
}
);
unicode = 370;
},
{
glyphname = V;
kernLeft = _kernV;
kernRight = _kernV;
layers = (
{
layerId = "E5B5FB99-9938-4E00-AE85-C3C14992734E";
shapes = (
{
closed = 1;
nodes = (
(751,700,l),
(440,108,l),
(129,700,l),
(15,700,l),
(383,0,l),
(497,0,l),
(865,700,l)
);
}
);
width = 880;
}
);
unicode = 86;
},
{
glyphname = W;
kernLeft = _kernW;
kernRight = _kernW;
layers = (
{
layerId = "E5B5FB99-9938-4E00-AE85-C3C14992734E";
shapes = (
{
closed = 1;
nodes = (
(986,700,l),
(886,700,l),
(886,252,ls),
(886,168,o),
(818,100,o),
(734,100,cs),
(650,100,o),
(582,168,o),
(582,252,cs),
(582,700,l),
(481,700,l),
(481,252,l),
(481,245,l),
(477,164,o),
(411,100,o),
(329,100,cs),
(245,100,o),
(177,168,o),
(177,252,cs),
(177,700,l),
(77,700,l),
(77,252,ls),
(77,113,o),
(190,0,o),
(329,0,cs),
(412,0,o),
(485,39,o),
(531,100,c),
(577,39,o),
(651,0,o),
(734,0,cs),
(873,0,o),
(986,113,o),
(986,252,cs)
);
}
);
width = 1063;
}
);
unicode = 87;
},
{
glyphname = X;
kernLeft = _kernX;
kernRight = _kernX;
layers = (
{
layerId = "E5B5FB99-9938-4E00-AE85-C3C14992734E";
shapes = (
{
closed = 1;
nodes = (
(136,700,l),
(5,700,l),
(344,350,l),
(5,0,l),
(136,0,l),
(409,282,l),
(683,0,l),
(814,0,l)
);
},
{
closed = 1;
nodes = (
(683,700,l),
(444,453,l),
(509,386,l),
(814,700,l)
);
}
);
width = 819;
}
);
unicode = 88;
},
{
glyphname = Y;
kernLeft = _kernY;
kernRight = _kernY;
layers = (
{
layerId = "E5B5FB99-9938-4E00-AE85-C3C14992734E";
shapes = (
{
closed = 1;
nodes = (
(866,700,l),
(766,700,l),
(766,350,l),
(307,350,ls),
(224,350,o),
(157,417,o),
(157,500,cs),
(157,700,l),
(57,700,l),
(57,500,ls),
(57,362,o),
(169,250,o),
(307,250,cs),
(766,250,l),
(766,200,ls),
(766,145,o),
(698,100,o),
(616,100,cs),
(57,100,l),
(57,0,l),
(616,0,ls),
(754,0,o),
(866,89,o),
(866,200,cs)
);
}
);
width = 944;
}
);
unicode = 89;
},
{
glyphname = Z;
kernLeft = _kernZ;
kernRight = _kernZ;
layers = (
{
layerId = "E5B5FB99-9938-4E00-AE85-C3C14992734E";
shapes = (
{
closed = 1;
nodes = (
(851,700,l),
(42,700,l),
(42,600,l),
(689,600,l),
(42,100,l),
(42,0,l),
(851,0,l),
(851,100,l),
(208,100,l),
(851,600,l)
);
}
);
width = 892;
}
);
unicode = 90;
},
{
glyphname = a;
kernLeft = _kerna_rightpair;
kernRight = _kerna_leftpair;
layers = (
{
layerId = "E5B5FB99-9938-4E00-AE85-C3C14992734E";
shapes = (
{
closed = 1;
nodes = (
(701,552,l),
(341,552,ls),
(188,552,o),
(63,428,o),
(63,275,cs),
(63,0,l),
(164,0,l),
(164,275,ls),
(164,372,o),
(243,451,o),
(341,451,cs),
(601,451,l),
(601,253,l),
(216,253,l),
(216,151,l),
(601,151,l),
(601,0,l),
(701,0,l)
);
}
);
width = 773;
}
);
unicode = 97;
},
{
glyphname = aogonek;
kernLeft = _kerna_rightpair;
kernRight = _kerna_leftpair;
layers = (
{
layerId = "E5B5FB99-9938-4E00-AE85-C3C14992734E";
shapes = (
{
closed = 1;
nodes = (
(701,552,l),
(341,552,ls),
(188,552,o),
(63,428,o),
(63,275,cs),
(63,0,l),
(164,0,l),
(164,275,ls),
(164,372,o),
(243,451,o),
(341,451,cs),
(601,451,l),
(601,253,l),
(216,253,l),
(216,151,l),
(601,151,l),
(601,0,l),
(610,0,l),
(580,-23,o),
(569,-61,o),
(569,-85,cs),
(569,-134,o),
(610,-151,o),
(660,-151,cs),
(713,-151,o),
(741,-140,o),
(759,-135,c),
(759,-70,l),
(741,-77,o),
(705,-88,o),
(682,-88,cs),
(655,-88,o),
(644,-81,o),
(644,-64,cs),
(644,-44,o),
(657,-19,o),
(680,0,c),
(701,0,l)
);
}
);
width = 773;
}
);
unicode = 261;
},
{
glyphname = ae;
kernLeft = _kerna_rightpair;
layers = (
{
layerId = "E5B5FB99-9938-4E00-AE85-C3C14992734E";
shapes = (
{
closed = 1;
nodes = (
(1176,101,l),
(703,101,l),
(703,451,l),
(1176,451,l),
(1176,552,l),
(341,552,ls),
(188,552,o),
(63,428,o),
(63,275,cs),
(63,0,l),
(164,0,l),
(164,275,ls),
(164,372,o),
(243,451,o),
(341,451,cs),
(601,451,l),
(601,253,l),
(216,253,l),
(216,151,l),
(601,151,l),
(601,0,l),
(1176,0,l)
);
},
{
closed = 1;
nodes = (
(1112,329,l),
(750,329,l),
(750,228,l),
(1112,228,l)
);
}
);
width = 1215;
}
);
unicode = 230;
},
{
glyphname = b;
layers = (
{
layerId = "E5B5FB99-9938-4E00-AE85-C3C14992734E";
shapes = (
{
closed = 1;
nodes = (
(723,230,o),
(683,288,o),
(626,314,c),
(639,336,o),
(647,362,o),
(647,390,cs),
(647,480,o),
(573,552,o),
(483,552,cs),
(72,552,l),
(72,0,l),
(174,0,l),
(174,451,l),
(483,451,ls),
(518,451,o),
(546,425,o),
(546,390,cs),
(546,356,o),
(515,331,o),
(476,329,c),
(221,329,l),
(221,228,l),
(558,228,ls),
(594,228,o),
(622,200,o),
(622,164,cs),
(622,129,o),
(594,101,o),
(558,101,cs),
(221,101,l),
(221,0,l),
(558,0,ls),
(649,0,o),
(723,73,o),
(723,164,cs)
);
}
);
width = 755;
}
);
unicode = 98;
},
{
glyphname = c;
kernLeft = _kernc;
kernRight = _kernc;
layers = (
{
layerId = "E5B5FB99-9938-4E00-AE85-C3C14992734E";
shapes = (
{
closed = 1;
nodes = (
(651,101,l),
(296,101,l),
(199,101,o),
(140,178,o),
(140,277,cs),
(140,374,o),
(199,451,o),
(296,451,c),
(651,451,l),
(651,552,l),
(296,552,l),
(141,552,o),
(39,430,o),
(39,277,cs),
(39,122,o),
(141,0,o),
(296,0,c),
(651,0,l)
);
}
);
width = 690;
}
);
unicode = 99;
},
{
glyphname = ccedilla;
kernLeft = _kernc;
kernRight = _kernc;
layers = (
{
layerId = "E5B5FB99-9938-4E00-AE85-C3C14992734E";
shapes = (
{
closed = 1;
nodes = (
(651,101,l),
(296,101,ls),
(199,101,o),
(140,178,o),
(140,277,cs),
(140,374,o),
(199,451,o),
(296,451,cs),
(651,451,l),
(651,552,l),
(296,552,ls),
(141,552,o),
(39,430,o),
(39,277,cs),
(39,122,o),
(141,0,o),
(296,0,cs),
(350,0,l),
(323,-73,l),
(333,-71,o),
(345,-69,o),
(356,-69,cs),
(371,-69,o),
(397,-72,o),
(397,-87,cs),
(397,-99,o),
(377,-105,o),
(351,-105,cs),
(325,-105,o),
(298,-98,o),
(280,-89,c),
(280,-151,l),
(298,-153,o),
(311,-159,o),
(359,-159,cs),
(411,-159,o),
(470,-142,o),
(470,-88,cs),
(470,-35,o),
(424,-24,o),
(396,-24,c),
(405,0,l),
(651,0,l)
);
}
);
width = 690;
}
);
unicode = 231;
},
{
glyphname = d;
kernLeft = _kernd;
kernRight = _kernd;
layers = (
{
layerId = "E5B5FB99-9938-4E00-AE85-C3C14992734E";
shapes = (
{
closed = 1;
nodes = (
(724,430,o),
(621,552,o),
(467,552,c),
(72,552,l),
(72,0,l),
(174,0,l),
(174,451,l),
(467,451,l),
(564,451,o),
(623,374,o),
(623,277,cs),
(623,178,o),
(564,101,o),
(467,101,c),
(221,101,l),
(221,0,l),
(467,0,l),
(621,0,o),
(724,122,o),
(724,277,cs)
);
}
);
width = 763;
}
);
unicode = 100;
},
{
glyphname = eth;
kernLeft = _kerno_rightpair;
kernRight = _kerno_leftpair;
layers = (
{
layerId = "E5B5FB99-9938-4E00-AE85-C3C14992734E";
shapes = (
{
closed = 1;
nodes = (
(467,320,l),
(249,320,l),
(249,451,l),
(542,451,ls),
(639,451,o),
(698,374,o),
(698,277,cs),
(698,178,o),
(639,101,o),
(542,101,cs),
(296,101,l),
(296,0,l),
(542,0,ls),
(696,0,o),
(799,122,o),
(799,277,cs),
(799,430,o),
(696,552,o),
(542,552,cs),
(147,552,l),
(147,320,l),
(17,320,l),
(17,220,l),
(147,220,l),
(147,0,l),
(249,0,l),
(249,220,l),
(467,220,l)
);
}
);
width = 838;
}
);
unicode = 240;
},
{
glyphname = dcroat;
layers = (
{
layerId = "E5B5FB99-9938-4E00-AE85-C3C14992734E";
shapes = (
{
closed = 1;
nodes = (
(467,320,l),
(249,320,l),
(249,451,l),
(542,451,ls),
(639,451,o),
(698,374,o),
(698,277,cs),
(698,178,o),
(639,101,o),
(542,101,cs),
(296,101,l),
(296,0,l),
(542,0,ls),
(696,0,o),
(799,122,o),
(799,277,cs),
(799,430,o),
(696,552,o),
(542,552,cs),
(147,552,l),
(147,320,l),
(17,320,l),
(17,220,l),
(147,220,l),
(147,0,l),
(249,0,l),
(249,220,l),
(467,220,l)
);
}
);
width = 838;
}
);
unicode = 273;
},
{
glyphname = e;
kernLeft = _kerne;
kernRight = _kerne;
layers = (
{
layerId = "E5B5FB99-9938-4E00-AE85-C3C14992734E";
shapes = (
{
closed = 1;
nodes = (
(646,101,l),
(173,101,l),
(173,451,l),
(646,451,l),
(646,552,l),
(72,552,l),
(72,0,l),
(646,0,l)
);
},
{
closed = 1;
nodes = (
(582,329,l),
(220,329,l),
(220,228,l),
(582,228,l)
);
}
);
width = 685;
}
);
unicode = 101;
},
{
glyphname = eogonek;
kernLeft = _kerne;
kernRight = _kerne;
layers = (
{
layerId = "E5B5FB99-9938-4E00-AE85-C3C14992734E";
shapes = (
{
closed = 1;
nodes = (
(646,101,l),
(173,101,l),
(173,451,l),
(646,451,l),
(646,552,l),
(72,552,l),
(72,0,l),
(497,0,l),
(467,-23,o),
(456,-61,o),
(456,-85,cs),
(456,-134,o),
(497,-151,o),
(547,-151,cs),
(600,-151,o),
(628,-140,o),
(646,-135,c),
(646,-70,l),
(628,-77,o),
(592,-88,o),
(569,-88,cs),
(542,-88,o),
(531,-81,o),
(531,-64,cs),
(531,-44,o),
(544,-19,o),
(567,0,c),
(646,0,l)
);
},
{
closed = 1;
nodes = (
(582,329,l),
(220,329,l),
(220,228,l),
(582,228,l)
);
}
);
width = 685;
}
);
unicode = 281;
},
{
glyphname = f;
kernLeft = _kernf;
kernRight = _kernf;
layers = (
{
layerId = "E5B5FB99-9938-4E00-AE85-C3C14992734E";
shapes = (
{
closed = 1;
nodes = (
(647,552,l),
(72,552,l),
(72,0,l),
(173,0,l),
(173,451,l),
(647,451,l)
);
},
{
closed = 1;
nodes = (
(582,329,l),
(220,329,l),
(220,228,l),
(582,228,l)
);
}
);
width = 667;
}
);
unicode = 102;
},
{
glyphname = g;
kernLeft = _kerng;
kernRight = _kerng;
layers = (
{
layerId = "E5B5FB99-9938-4E00-AE85-C3C14992734E";
shapes = (
{
closed = 1;
nodes = (
(651,329,l),
(263,329,l),
(263,228,l),
(550,228,l),
(550,101,l),
(296,101,ls),
(199,101,o),
(140,178,o),
(140,277,cs),
(140,374,o),
(199,451,o),
(296,451,cs),
(651,451,l),
(651,552,l),
(296,552,ls),
(141,552,o),
(39,430,o),
(39,277,cs),
(39,122,o),
(141,0,o),
(296,0,cs),
(651,0,l)
);
}
);
width = 706;
}
);
unicode = 103;
},
{
glyphname = h;
kernLeft = _kernh;
kernRight = _kernh;
layers = (
{
layerId = "E5B5FB99-9938-4E00-AE85-C3C14992734E";
shapes = (
{
closed = 1;
nodes = (
(650,550,l),
(550,550,l),
(550,324,l),
(219,324,l),
(219,224,l),
(550,224,l),
(550,0,l),
(650,0,l)
);
},
{
closed = 1;
nodes = (
(172,550,l),
(72,550,l),
(72,0,l),
(172,0,l)
);
}
);
width = 722;
}
);
unicode = 104;
},
{
glyphname = hbar;
kernLeft = _kernh;
kernRight = _kernh;
layers = (
{
layerId = "E5B5FB99-9938-4E00-AE85-C3C14992734E";
shapes = (
{
closed = 1;
nodes = (
(650,550,l),
(550,550,l),
(550,324,l),
(219,324,l),
(219,224,l),
(550,224,l),
(550,0,l),
(650,0,l)
);
},
{
closed = 1;
nodes = (
(172,550,l),
(72,550,l),
(72,0,l),
(172,0,l),
(172,387,l),
(497,387,l),
(497,482,l),
(172,482,l)
);
}
);
width = 722;
}
);
unicode = 295;
},
{
glyphname = i;
kernLeft = _kerni;
kernRight = _kerni;
layers = (
{
layerId = "E5B5FB99-9938-4E00-AE85-C3C14992734E";
shapes = (
{
closed = 1;
nodes = (
(171,550,l),
(72,550,l),
(72,0,l),
(171,0,l)
);
}
);
width = 243;
}
);
unicode = 105;
},
{
glyphname = dotlessi;
kernLeft = _kerni;
kernRight = _kerni;
layers = (
{
layerId = "E5B5FB99-9938-4E00-AE85-C3C14992734E";
shapes = (
{
closed = 1;
nodes = (
(171,550,l),
(72,550,l),
(72,0,l),
(171,0,l)
);
}
);
width = 243;
}
);
unicode = 305;
},
{
glyphname = iogonek;
kernLeft = _kerni;
kernRight = _kerni;
layers = (
{
layerId = "E5B5FB99-9938-4E00-AE85-C3C14992734E";
shapes = (
{
closed = 1;
nodes = (
(171,550,l),
(72,550,l),
(72,0,l),
(80,0,l),
(50,-23,o),
(39,-61,o),
(39,-85,cs),
(39,-134,o),
(80,-151,o),
(130,-151,cs),
(183,-151,o),
(211,-140,o),
(229,-135,c),
(229,-70,l),
(211,-77,o),
(175,-88,o),
(152,-88,cs),
(125,-88,o),
(114,-81,o),
(114,-64,cs),
(114,-44,o),
(127,-19,o),
(150,0,c),
(171,0,l)
);
}
);
width = 243;
}
);
unicode = 303;
},
{
glyphname = j;
kernLeft = _kernj;
kernRight = _kernj;
layers = (
{
layerId = "E5B5FB99-9938-4E00-AE85-C3C14992734E";
shapes = (
{
closed = 1;
nodes = (
(635,550,l),
(38,550,l),
(38,451,l),
(536,451,l),
(536,275,l),
(536,178,o),
(457,100,o),
(361,100,c),
(38,100,l),
(38,0,l),
(361,0,l),
(513,0,o),
(635,123,o),
(635,275,c)
);
}
);
width = 698;
}
);
unicode = 106;
},
{
glyphname = dotlessj;
kernLeft = _kernj;
kernRight = _kernj;
layers = (
{
layerId = "E5B5FB99-9938-4E00-AE85-C3C14992734E";
shapes = (
{
closed = 1;
nodes = (
(635,550,l),
(38,550,l),
(38,451,l),
(536,451,l),
(536,275,l),
(536,178,o),
(457,100,o),
(361,100,c),
(38,100,l),
(38,0,l),
(361,0,l),
(513,0,o),
(635,123,o),
(635,275,c)
);
}
);
width = 698;
}
);
unicode = 567;
},
{
glyphname = k;
kernLeft = _kernk;
kernRight = _kernk;
layers = (
{
layerId = "E5B5FB99-9938-4E00-AE85-C3C14992734E";
shapes = (
{
closed = 1;
nodes = (
(401,321,l),
(718,550,l),
(565,550,l),
(172,270,l),
(172,550,l),
(72,550,l),
(72,0,l),
(172,0,l),
(172,155,l),
(324,265,l),
(588,0,l),
(723,0,l)
);
}
);
width = 727;
}
);
unicode = 107;
},
{
glyphname = kgreenlandic;
kernLeft = _kernk;
kernRight = _kernk;
layers = (
{
layerId = "E5B5FB99-9938-4E00-AE85-C3C14992734E";
shapes = (
{
closed = 1;
nodes = (
(401,321,l),
(718,550,l),
(565,550,l),
(172,270,l),
(172,550,l),
(72,550,l),
(72,0,l),
(172,0,l),
(172,155,l),
(324,265,l),
(588,0,l),
(723,0,l)
);
}
);
width = 727;
}
);
unicode = 312;
},
{
glyphname = l;
kernLeft = _kernl;
kernRight = _kernl;
layers = (
{
layerId = "E5B5FB99-9938-4E00-AE85-C3C14992734E";
shapes = (
{
closed = 1;
nodes = (
(598,100,l),
(172,100,l),
(172,550,l),
(72,550,l),
(72,0,l),
(598,0,l)
);
}
);
width = 611;
}
);
unicode = 108;
},
{
glyphname = lslash;
kernLeft = _kernl;
kernRight = _kernl;
layers = (
{
layerId = "E5B5FB99-9938-4E00-AE85-C3C14992734E";
shapes = (
{
closed = 1;
nodes = (
(478,428,l),
(248,344,l),
(248,550,l),
(148,550,l),
(148,307,l),
(18,260,l),
(18,150,l),
(148,197,l),
(148,0,l),
(674,0,l),
(674,100,l),
(248,100,l),
(248,234,l),
(478,318,l)
);
}
);
width = 687;
}
);
unicode = 322;
},
{
glyphname = m;
layers = (
{
layerId = "E5B5FB99-9938-4E00-AE85-C3C14992734E";
shapes = (
{
closed = 1;
nodes = (
(475,264,ls),
(475,367,o),
(553,451,o),
(649,451,cs),
(677,451,l),
(677,0,l),
(777,0,l),
(777,550,l),
(649,550,ls),
(557,550,o),
(477,503,o),
(427,431,c),
(377,503,o),
(294,550,o),
(200,550,cs),
(72,550,l),
(72,0,l),
(172,0,l),
(172,451,l),
(200,451,ls),
(297,451,o),
(375,373,o),
(375,277,cs),
(375,0,l),
(475,0,l)
);
}
);
width = 849;
}
);
unicode = 109;
},
{
glyphname = n;
kernLeft = _kernn;
kernRight = _kernn;
layers = (
{
layerId = "E5B5FB99-9938-4E00-AE85-C3C14992734E";
shapes = (
{
closed = 1;
nodes = (
(677,0,l),
(677,550,l),
(577,550,l),
(577,278,l),
(461,434,o),
(269,541,o),
(126,549,c),
(126,550,l),
(72,550,l),
(72,0,l),
(172,0,l),
(172,443,l),
(341,403,o),
(577,219,o),
(577,0,c)
);
}
);
width = 749;
}
);
unicode = 110;
},
{
glyphname = eng;
kernLeft = _kernn;
kernRight = _kernn;
layers = (
{
layerId = "E5B5FB99-9938-4E00-AE85-C3C14992734E";
shapes = (
{
closed = 1;
nodes = (
(677,123,l),
(677,550,l),
(577,550,l),
(577,278,l),
(461,434,o),
(269,541,o),
(126,549,c),
(126,550,l),
(72,550,l),
(72,0,l),
(172,0,l),
(172,443,l),
(330,405,o),
(546,241,o),
(573,41,c),
(557,-39,o),
(486,-100,o),
(402,-100,cs),
(79,-100,l),
(79,-200,l),
(402,-200,ls),
(554,-200,o),
(676,-77,o),
(676,75,cs),
(676,122,l)
);
}
);
width = 749;
}
);
unicode = 331;
},
{
glyphname = o;
kernLeft = _kerno_rightpair;
kernRight = _kerno_leftpair;
layers = (
{
layerId = "E5B5FB99-9938-4E00-AE85-C3C14992734E";
shapes = (
{
closed = 1;
nodes = (
(720,427,o),
(619,550,o),
(467,550,c),
(293,550,l),
(140,550,o),
(39,427,o),
(39,276,cs),
(39,124,o),
(140,0,o),
(293,0,c),
(467,0,l),
(619,0,o),
(720,124,o),
(720,276,cs)
);
},
{
closed = 1;
nodes = (
(620,179,o),
(563,100,o),
(467,100,c),
(293,100,l),
(197,100,o),
(139,179,o),
(139,276,cs),
(139,372,o),
(197,451,o),
(293,451,c),
(467,451,l),
(563,451,o),
(620,372,o),
(620,276,cs)
);
}
);
width = 759;
}
);
unicode = 111;
},
{
glyphname = oslash;
kernLeft = _kerno_rightpair;
kernRight = _kerno_leftpair;
layers = (
{
layerId = "E5B5FB99-9938-4E00-AE85-C3C14992734E";
shapes = (
{
closed = 1;
nodes = (
(552,551,l),
(542,539,l),
(519,546,o),
(493,550,o),
(467,550,cs),
(293,550,ls),
(140,550,o),
(39,427,o),
(39,276,cs),
(39,186,o),
(74,106,o),
(135,55,c),
(89,0,l),
(208,0,l),
(217,11,l),
(241,4,o),
(266,0,o),
(293,0,cs),
(467,0,ls),
(619,0,o),
(720,124,o),
(720,276,cs),
(720,365,o),
(684,445,o),
(624,495,c),
(671,551,l)
);
},
{
closed = 1;
nodes = (
(467,451,l),
(468,451,l),
(199,132,l),
(160,164,o),
(139,216,o),
(139,276,cs),
(139,372,o),
(197,451,o),
(293,451,cs)
);
},
{
closed = 1;
nodes = (
(620,179,o),
(563,100,o),
(467,100,cs),
(293,100,l),
(292,100,l),
(560,419,l),
(598,387,o),
(620,335,o),
(620,276,cs)
);
}
);
width = 759;
}
);
unicode = 248;
},
{
glyphname = oe;
kernLeft = _kerno_rightpair;
layers = (
{
layerId = "E5B5FB99-9938-4E00-AE85-C3C14992734E";
shapes = (
{
closed = 1;
nodes = (
(1195,101,l),
(722,101,l),
(722,451,l),
(1195,451,l),
(1195,552,l),
(621,552,l),
(621,497,l),
(580,530,o),
(527,550,o),
(467,550,cs),
(293,550,ls),
(140,550,o),
(39,427,o),
(39,276,cs),
(39,124,o),
(140,0,o),
(293,0,cs),
(467,0,ls),
(527,0,o),
(580,19,o),
(621,53,c),
(621,0,l),
(1195,0,l)
);
},
{
closed = 1;
nodes = (
(620,179,o),
(563,100,o),
(467,100,cs),
(293,100,ls),
(197,100,o),
(139,179,o),
(139,276,cs),
(139,372,o),
(197,451,o),
(293,451,cs),
(467,451,ls),
(563,451,o),
(620,372,o),
(620,276,cs)
);
},
{
closed = 1;
nodes = (
(1131,329,l),
(769,329,l),
(769,228,l),
(1131,228,l)
);
}
);
width = 1234;
}
);
unicode = 339;
},
{
glyphname = p;
layers = (
{
layerId = "E5B5FB99-9938-4E00-AE85-C3C14992734E";
shapes = (
{
closed = 1;
nodes = (
(701,460,o),
(611,550,o),
(501,550,c),
(72,550,l),
(72,0,l),
(171,0,l),
(171,451,l),
(501,451,l),
(557,451,o),
(602,406,o),
(602,350,cs),
(602,295,o),
(557,248,o),
(501,248,c),
(223,248,l),
(223,149,l),
(501,149,l),
(611,149,o),
(701,241,o),
(701,350,cs)
);
}
);
width = 721;
}
);
unicode = 112;
},
{
glyphname = thorn;
layers = (
{
layerId = "E5B5FB99-9938-4E00-AE85-C3C14992734E";
shapes = (
{
closed = 1;
nodes = (
(701,380,o),
(611,470,o),
(501,470,cs),
(171,470,l),
(171,550,l),
(72,550,l),
(72,0,l),
(171,0,l),
(171,371,l),
(501,371,ls),
(557,371,o),
(602,326,o),
(602,270,cs),
(602,215,o),
(557,168,o),
(501,168,cs),
(223,168,l),
(223,69,l),
(501,69,ls),
(611,69,o),
(701,161,o),
(701,270,cs)
);
}
);
width = 725;
}
);
unicode = 254;
},
{
glyphname = q;
kernLeft = _kernq;
kernRight = _kernq;
layers = (
{
layerId = "E5B5FB99-9938-4E00-AE85-C3C14992734E";
shapes = (
{
closed = 1;
nodes = (
(685,-63,l),
(587,30,l),
(670,76,o),
(720,169,o),
(720,276,cs),
(720,427,o),
(619,550,o),
(467,550,cs),
(293,550,ls),
(140,550,o),
(39,427,o),
(39,276,cs),
(39,124,o),
(140,0,o),
(293,0,cs),
(467,0,l),
(482,0,l),
(549,-63,l)
);
},
{
closed = 1;
nodes = (
(620,194,o),
(579,125,o),
(509,105,c),
(446,167,l),
(306,167,l),
(377,100,l),
(293,100,ls),
(197,100,o),
(139,179,o),
(139,276,cs),
(139,372,o),
(197,451,o),
(293,451,cs),
(467,451,ls),
(563,451,o),
(620,372,o),
(620,276,cs)
);
}
);
width = 759;
}
);
unicode = 113;
},
{
glyphname = r;
kernLeft = _kernr;
kernRight = _kernr;
layers = (
{
layerId = "E5B5FB99-9938-4E00-AE85-C3C14992734E";
shapes = (
{
closed = 1;
nodes = (
(557,157,l),
(640,181,o),
(701,260,o),
(701,350,cs),
(701,460,o),
(612,550,o),
(501,550,cs),
(72,550,l),
(72,0,l),
(172,0,l),
(172,451,l),
(501,451,ls),
(557,451,o),
(602,406,o),
(602,350,cs),
(602,295,o),
(557,248,o),
(501,248,cs),
(224,248,l),
(224,149,l),
(427,149,l),
(583,0,l),
(719,0,l)
);
}
);
width = 748;
}
);
unicode = 114;
},
{
glyphname = s;
kernLeft = _kerns;
kernRight = _kerns;
layers = (
{
layerId = "E5B5FB99-9938-4E00-AE85-C3C14992734E";
shapes = (
{
closed = 1;
nodes = (
(675,251,o),
(603,325,o),
(513,325,c),
(207,325,l),
(173,325,o),
(145,353,o),
(145,388,cs),
(145,422,o),
(173,451,o),
(207,451,c),
(638,451,l),
(638,550,l),
(207,550,l),
(119,550,o),
(46,476,o),
(46,388,cs),
(46,298,o),
(119,225,o),
(207,225,c),
(513,225,l),
(548,225,o),
(576,197,o),
(576,162,cs),
(576,127,o),
(548,100,o),
(513,100,c),
(46,100,l),
(46,0,l),
(513,0,l),
(603,0,o),
(675,72,o),
(675,162,cs)
);
}
);
width = 707;
}
);
unicode = 115;
},
{
glyphname = scedilla;
kernLeft = _kerns;
kernRight = _kerns;
layers = (
{
layerId = "E5B5FB99-9938-4E00-AE85-C3C14992734E";
shapes = (
{
closed = 1;
nodes = (
(675,251,o),
(603,325,o),
(513,325,cs),
(207,325,ls),
(173,325,o),
(145,353,o),
(145,388,cs),
(145,422,o),
(173,451,o),
(207,451,cs),
(638,451,l),
(638,550,l),
(207,550,ls),
(119,550,o),
(46,476,o),
(46,388,cs),
(46,298,o),
(119,225,o),
(207,225,cs),
(513,225,ls),
(548,225,o),
(576,197,o),
(576,162,cs),
(576,127,o),
(548,100,o),
(513,100,cs),
(46,100,l),
(46,0,l),
(328,0,l),
(301,-73,l),
(311,-71,o),
(323,-69,o),
(334,-69,cs),
(349,-69,o),
(375,-72,o),
(375,-87,cs),
(375,-99,o),
(355,-105,o),
(329,-105,cs),
(303,-105,o),
(276,-98,o),
(258,-89,c),
(258,-151,l),
(276,-153,o),
(289,-159,o),
(337,-159,cs),
(389,-159,o),
(448,-142,o),
(448,-88,cs),
(448,-35,o),
(402,-24,o),
(374,-24,c),
(383,0,l),
(513,0,ls),
(603,0,o),
(675,72,o),
(675,162,cs)
);
}
);
width = 707;
}
);
unicode = 351;
},
{
glyphname = germandbls;
kernLeft = _kerns;
kernRight = _kerns;
layers = (
{
layerId = "E5B5FB99-9938-4E00-AE85-C3C14992734E";
shapes = (
{
closed = 1;
nodes = (
(675,251,o),
(603,325,o),
(513,325,c),
(207,325,l),
(173,325,o),
(145,353,o),
(145,388,cs),
(145,422,o),
(173,451,o),
(207,451,c),
(638,451,l),
(638,550,l),
(207,550,l),
(119,550,o),
(46,476,o),
(46,388,cs),
(46,298,o),
(119,225,o),
(207,225,c),
(513,225,l),
(548,225,o),
(576,197,o),
(576,162,cs),
(576,127,o),
(548,100,o),
(513,100,c),
(46,100,l),
(46,0,l),
(513,0,l),
(603,0,o),
(675,72,o),
(675,162,cs)
);
},
{
closed = 1;
nodes = (
(1382,251,o),
(1310,325,o),
(1220,325,cs),
(914,325,ls),
(880,325,o),
(852,353,o),
(852,388,cs),
(852,422,o),
(880,451,o),
(914,451,cs),
(1345,451,l),
(1345,550,l),
(914,550,ls),
(826,550,o),
(753,476,o),
(753,388,cs),
(753,298,o),
(826,225,o),
(914,225,cs),
(1220,225,ls),
(1255,225,o),
(1283,197,o),
(1283,162,cs),
(1283,127,o),
(1255,100,o),
(1220,100,cs),
(753,100,l),
(753,0,l),
(1220,0,ls),
(1310,0,o),
(1382,72,o),
(1382,162,cs)
);
}
);
width = 1414;
}
);
unicode = 223;
},
{
glyphname = t;
kernLeft = _kernt;
kernRight = _kernt;
layers = (
{
layerId = "E5B5FB99-9938-4E00-AE85-C3C14992734E";
shapes = (
{
closed = 1;
nodes = (
(376,451,l),
(640,451,l),
(640,550,l),
(11,550,l),
(11,451,l),
(276,451,l),
(276,0,l),
(376,0,l)
);
}
);
width = 651;
}
);
unicode = 116;
},
{
glyphname = tbar;
kernLeft = _kernt;
kernRight = _kernt;
layers = (
{
layerId = "E5B5FB99-9938-4E00-AE85-C3C14992734E";
shapes = (
{
closed = 1;
nodes = (
(525,297,l),
(376,297,l),
(376,451,l),
(640,451,l),
(640,550,l),
(11,550,l),
(11,451,l),
(276,451,l),
(276,297,l),
(125,297,l),
(125,197,l),
(276,197,l),
(276,0,l),
(376,0,l),
(376,197,l),
(525,197,l)
);
}
);
width = 651;
}
);
unicode = 359;
},
{
glyphname = u;
kernLeft = _kernu;
kernRight = _kernu;
layers = (
{
layerId = "E5B5FB99-9938-4E00-AE85-C3C14992734E";
shapes = (
{
closed = 1;
nodes = (
(566,550,l),
(566,275,l),
(566,178,o),
(489,100,o),
(392,100,c),
(337,100,l),
(241,100,o),
(163,178,o),
(163,275,c),
(163,550,l),
(63,550,l),
(63,275,l),
(63,124,o),
(186,0,o),
(337,0,c),
(392,0,l),
(543,0,o),
(666,123,o),
(666,275,c),
(666,550,l)
);
}
);
width = 729;
}
);
unicode = 117;
},
{
glyphname = uogonek;
kernLeft = _kernu;
kernRight = _kernu;
layers = (
{
layerId = "E5B5FB99-9938-4E00-AE85-C3C14992734E";
shapes = (
{
closed = 1;
nodes = (
(566,550,l),
(566,275,ls),
(566,178,o),
(489,100,o),
(392,100,cs),
(337,100,ls),
(241,100,o),
(163,178,o),
(163,275,cs),
(163,550,l),
(63,550,l),
(63,275,ls),
(63,125,o),
(184,2,o),
(333,0,c),
(303,-23,o),
(292,-61,o),
(292,-85,cs),
(292,-134,o),
(333,-151,o),
(383,-151,cs),
(436,-151,o),
(464,-140,o),
(482,-135,c),
(482,-70,l),
(464,-77,o),
(428,-88,o),
(405,-88,cs),
(378,-88,o),
(367,-81,o),
(367,-64,cs),
(367,-44,o),
(380,-19,o),
(403,0,c),
(549,6,o),
(666,127,o),
(666,275,cs),
(666,550,l)
);
}
);
width = 729;
}
);
unicode = 371;
},
{
glyphname = v;
kernLeft = _kernv;
kernRight = _kernv;
layers = (
{
layerId = "E5B5FB99-9938-4E00-AE85-C3C14992734E";
shapes = (
{
closed = 1;
nodes = (
(578,550,l),
(353,111,l),
(127,550,l),
(13,550,l),
(296,0,l),
(410,0,l),
(691,550,l)
);
}
);
width = 704;
}
);
unicode = 118;
},
{
glyphname = w;
kernLeft = _kernw;
kernRight = _kernw;
layers = (
{
layerId = "E5B5FB99-9938-4E00-AE85-C3C14992734E";
shapes = (
{
closed = 1;
nodes = (
(772,550,l),
(672,550,l),
(672,201,ls),
(672,144,o),
(627,100,o),
(570,100,cs),
(514,100,o),
(470,150,o),
(470,213,cs),
(470,550,l),
(369,550,l),
(369,201,ls),
(369,144,o),
(324,100,o),
(267,100,cs),
(211,100,o),
(166,144,o),
(166,201,cs),
(166,550,l),
(66,550,l),
(66,201,ls),
(66,90,o),
(157,0,o),
(267,0,cs),
(328,0,o),
(384,27,o),
(421,70,c),
(458,27,o),
(511,0,o),
(570,0,cs),
(682,0,o),
(772,90,o),
(772,201,cs)
);
}
);
width = 838;
}
);
unicode = 119;
},
{
glyphname = x;
kernLeft = _kernx;
kernRight = _kernx;
layers = (
{
layerId = "E5B5FB99-9938-4E00-AE85-C3C14992734E";
shapes = (
{
closed = 1;
nodes = (
(140,550,l),
(8,550,l),
(274,274,l),
(8,0,l),
(140,0,l),
(340,206,l),
(540,0,l),
(671,0,l)
);
},
{
closed = 1;
nodes = (
(540,550,l),
(369,372,l),
(434,304,l),
(671,550,l)
);
}
);
width = 679;
}
);
unicode = 120;
},
{
glyphname = y;
kernLeft = _kerny;
kernRight = _kerny;
layers = (
{
layerId = "E5B5FB99-9938-4E00-AE85-C3C14992734E";
shapes = (
{
closed = 1;
nodes = (
(682,550,l),
(582,550,l),
(582,287,l),
(251,287,ls),
(196,287,o),
(151,331,o),
(151,387,cs),
(151,550,l),
(52,550,l),
(52,387,ls),
(52,277,o),
(141,187,o),
(251,187,cs),
(582,187,l),
(582,162,ls),
(582,127,o),
(537,100,o),
(482,100,cs),
(52,100,l),
(52,0,l),
(482,0,ls),
(592,0,o),
(682,72,o),
(682,162,cs)
);
}
);
width = 749;
}
);
unicode = 121;
},
{
glyphname = z;
kernLeft = _kernz;
kernRight = _kernz;
layers = (
{
layerId = "E5B5FB99-9938-4E00-AE85-C3C14992734E";
shapes = (
{
closed = 1;
nodes = (
(672,550,l),
(42,550,l),
(42,451,l),
(520,451,l),
(42,100,l),
(42,0,l),
(672,0,l),
(672,100,l),
(197,100,l),
(672,451,l)
);
}
);
width = 714;
}
);
unicode = 122;
},
{
glyphname = ordfeminine;
layers = (
{
layerId = "E5B5FB99-9938-4E00-AE85-C3C14992734E";
shapes = (
{
closed = 1;
nodes = (
(454,591,l),
(454,651,o),
(405,701,o),
(345,701,c),
(104,701,l),
(104,627,l),
(345,627,l),
(365,627,o),
(381,612,o),
(381,591,c),
(381,439,l),
(156,439,l),
(135,439,o),
(120,455,o),
(120,475,cs),
(120,495,o),
(135,511,o),
(156,511,c),
(347,511,l),
(347,585,l),
(156,585,l),
(96,585,o),
(46,535,o),
(46,475,cs),
(46,415,o),
(96,366,o),
(156,366,c),
(454,366,l)
);
},
{
closed = 1;
nodes = (
(454,310,l),
(46,310,l),
(46,240,l),
(454,240,l)
);
}
);
width = 509;
}
);
unicode = 170;
},
{
glyphname = ordmasculine;
layers = (
{
layerId = "E5B5FB99-9938-4E00-AE85-C3C14992734E";
shapes = (
{
closed = 1;
nodes = (
(495,625,o),
(420,701,o),
(328,701,c),
(210,701,l),
(118,701,o),
(43,625,o),
(43,533,cs),
(43,441,o),
(118,367,o),
(210,366,c),
(328,366,l),
(420,367,o),
(495,441,o),
(495,533,cs)
);
},
{
closed = 1;
nodes = (
(421,481,o),
(381,439,o),
(328,439,c),
(210,439,l),
(158,439,o),
(117,481,o),
(117,533,cs),
(117,585,o),
(158,626,o),
(210,627,c),
(328,627,l),
(381,626,o),
(421,585,o),
(421,533,cs)
);
},
{
closed = 1;
nodes = (
(496,310,l),
(43,310,l),
(43,240,l),
(496,240,l)
);
}
);
width = 539;
}
);
unicode = 186;
},
{
glyphname = zero;
layers = (
{
layerId = "E5B5FB99-9938-4E00-AE85-C3C14992734E";
shapes = (
{
closed = 1;
nodes = (
(854,543,o),
(725,700,o),
(532,700,cs),
(369,700,ls),
(175,700,o),
(47,543,o),
(47,350,cs),
(47,156,o),
(175,0,o),
(369,0,cs),
(532,0,ls),
(725,0,o),
(854,156,o),
(854,350,cs)
);
},
{
closed = 1;
nodes = (
(754,212,o),
(670,100,o),
(532,100,cs),
(369,100,ls),
(231,100,o),
(147,212,o),
(147,350,cs),
(147,488,o),
(231,600,o),
(369,600,cs),
(532,600,ls),
(670,600,o),
(754,488,o),
(754,350,cs)
);
}
);
width = 901;
}
);
unicode = 48;
},
{
glyphname = one;
layers = (
{
layerId = "E5B5FB99-9938-4E00-AE85-C3C14992734E";
shapes = (
{
closed = 1;
nodes = (
(229,700,l),
(29,700,l),
(29,600,l),
(129,600,l),
(129,0,l),
(229,0,l)
);
}
);
width = 313;
}
);
unicode = 49;
},
{
glyphname = two;
layers = (
{
layerId = "E5B5FB99-9938-4E00-AE85-C3C14992734E";
shapes = (
{
closed = 1;
nodes = (
(695,100,l),
(144,100,l),
(144,200,ls),
(144,255,o),
(190,300,o),
(245,300,cs),
(495,300,ls),
(605,300,o),
(695,390,o),
(695,500,cs),
(695,610,o),
(605,700,o),
(495,700,cs),
(95,700,l),
(95,600,l),
(495,600,ls),
(550,600,o),
(595,555,o),
(595,500,cs),
(595,445,o),
(550,400,o),
(495,400,cs),
(245,400,ls),
(135,400,o),
(45,310,o),
(45,200,cs),
(45,0,l),
(695,0,l)
);
}
);
width = 747;
}
);
unicode = 50;
},
{
glyphname = three;
layers = (
{
layerId = "E5B5FB99-9938-4E00-AE85-C3C14992734E";
shapes = (
{
closed = 1;
nodes = (
(699,610,o),
(609,700,o),
(499,700,cs),
(49,700,l),
(49,600,l),
(499,600,ls),
(554,600,o),
(599,555,o),
(599,500,cs),
(599,445,o),
(554,400,o),
(499,400,cs),
(175,400,l),
(175,300,l),
(499,300,ls),
(554,300,o),
(599,255,o),
(599,200,cs),
(599,145,o),
(554,100,o),
(499,100,cs),
(49,100,l),
(49,0,l),
(499,0,ls),
(609,0,o),
(699,90,o),
(699,200,cs),
(699,259,o),
(672,313,o),
(630,350,c),
(672,386,o),
(699,440,o),
(699,500,cs)
);
}
);
width = 756;
}
);
unicode = 51;
},
{
glyphname = four;
layers = (
{
layerId = "E5B5FB99-9938-4E00-AE85-C3C14992734E";
shapes = (
{
closed = 1;
nodes = (
(40,450,ls),
(40,340,o),
(130,250,o),
(240,250,cs),
(640,250,l),
(640,0,l),
(740,0,l),
(740,700,l),
(640,700,l),
(640,350,l),
(240,350,ls),
(185,350,o),
(140,395,o),
(140,450,cs),
(140,700,l),
(40,700,l)
);
}
);
width = 824;
}
);
unicode = 52;
},
{
glyphname = five;
layers = (
{
layerId = "E5B5FB99-9938-4E00-AE85-C3C14992734E";
shapes = (
{
closed = 1;
nodes = (
(716,349,o),
(616,450,o),
(491,450,cs),
(165,450,l),
(165,600,l),
(666,600,l),
(666,700,l),
(65,700,l),
(65,350,l),
(491,350,ls),
(560,350,o),
(616,294,o),
(616,225,cs),
(616,156,o),
(560,100,o),
(491,100,cs),
(64,100,l),
(64,0,l),
(491,0,ls),
(616,0,o),
(716,101,o),
(716,225,cs)
);
}
);
width = 753;
}
);
unicode = 53;
},
{
glyphname = six;
layers = (
{
layerId = "E5B5FB99-9938-4E00-AE85-C3C14992734E";
shapes = (
{
closed = 1;
nodes = (
(764,349,o),
(663,450,o),
(539,450,cs),
(214,450,l),
(214,350,l),
(539,350,ls),
(608,350,o),
(664,294,o),
(664,225,cs),
(664,156,o),
(608,100,o),
(539,100,cs),
(289,100,ls),
(220,100,o),
(164,156,o),
(164,225,cs),
(164,475,ls),
(164,544,o),
(220,600,o),
(289,600,cs),
(714,600,l),
(714,700,l),
(289,700,ls),
(165,700,o),
(64,599,o),
(64,475,cs),
(64,225,ls),
(64,101,o),
(165,0,o),
(289,0,cs),
(539,0,ls),
(663,0,o),
(764,101,o),
(764,225,cs)
);
}
);
width = 801;
}
);
unicode = 54;
},
{
glyphname = seven;
layers = (
{
layerId = "E5B5FB99-9938-4E00-AE85-C3C14992734E";
shapes = (
{
closed = 1;
nodes = (
(728,700,l),
(28,700,l),
(28,600,l),
(591,600,l),
(72,0,l),
(209,0,l),
(728,600,l)
);
}
);
width = 741;
}
);
unicode = 55;
},
{
glyphname = eight;
layers = (
{
layerId = "E5B5FB99-9938-4E00-AE85-C3C14992734E";
shapes = (
{
closed = 1;
nodes = (
(744,610,o),
(654,700,o),
(544,700,cs),
(294,700,ls),
(183,700,o),
(94,610,o),
(94,500,cs),
(94,451,o),
(111,406,o),
(141,371,c),
(83,336,o),
(44,272,o),
(44,200,cs),
(44,90,o),
(133,0,o),
(244,0,cs),
(594,0,ls),
(704,0,o),
(794,90,o),
(794,200,cs),
(794,272,o),
(754,336,o),
(696,371,c),
(726,406,o),
(744,451,o),
(744,500,cs)
);
},
{
closed = 1;
nodes = (
(594,300,ls),
(649,300,o),
(694,255,o),
(694,200,cs),
(694,145,o),
(649,100,o),
(594,100,cs),
(244,100,ls),
(188,100,o),
(144,145,o),
(144,200,cs),
(144,255,o),
(188,300,o),
(244,300,cs)
);
},
{
closed = 1;
nodes = (
(294,400,ls),
(238,400,o),
(194,445,o),
(194,500,cs),
(194,555,o),
(238,600,o),
(294,600,cs),
(544,600,ls),
(599,600,o),
(644,555,o),
(644,500,cs),
(644,445,o),
(599,400,o),
(544,400,cs)
);
}
);
width = 838;
}
);
unicode = 56;
},
{
glyphname = nine;
layers = (
{
layerId = "E5B5FB99-9938-4E00-AE85-C3C14992734E";
shapes = (
{
closed = 1;
nodes = (
(737,475,ls),
(737,599,o),
(636,700,o),
(512,700,cs),
(262,700,ls),
(137,700,o),
(37,599,o),
(37,475,cs),
(37,351,o),
(137,250,o),
(262,250,cs),
(587,250,l),
(587,350,l),
(262,350,ls),
(193,350,o),
(137,406,o),
(137,475,cs),
(137,544,o),
(193,600,o),
(262,600,cs),
(512,600,ls),
(581,600,o),
(637,544,o),
(637,475,cs),
(637,225,ls),
(637,156,o),
(581,100,o),
(512,100,cs),
(87,100,l),
(87,0,l),
(512,0,ls),
(636,0,o),
(737,101,o),
(737,225,cs)
);
}
);
width = 801;
}
);
unicode = 57;
},
{
glyphname = fraction;
layers = (
{
layerId = "E5B5FB99-9938-4E00-AE85-C3C14992734E";
shapes = (
{
closed = 1;
nodes = (
(389,658,l),
(6,30,l),
(102,30,l),
(485,658,l)
);
}
);
width = 493;
}
);
unicode = 8260;
},
{
glyphname = onehalf;
layers = (
{
layerId = "E5B5FB99-9938-4E00-AE85-C3C14992734E";
shapes = (
{
closed = 1;
nodes = (
(440,658,l),
(57,30,l),
(153,30,l),
(536,658,l)
);
},
{
closed = 1;
nodes = (
(183,668,l),
(49,668,l),
(49,584,l),
(100,584,l),
(100,331,l),
(183,331,l)
);
},
{
closed = 1;
nodes = (
(695,103,l),
(467,103,l),
(467,136,ls),
(467,141,o),
(469,146,o),
(476,146,cs),
(603,146,ls),
(639,146,o),
(695,171,o),
(695,238,cs),
(695,264,ls),
(695,299,o),
(670,356,o),
(603,356,cs),
(409,356,l),
(409,272,l),
(603,272,l),
(603,272,o),
(607,272,o),
(612,263,c),
(612,238,l),
(612,232,o),
(609,229,o),
(602,229,cs),
(476,229,ls),
(409,229,o),
(384,173,o),
(384,137,cs),
(384,19,l),
(695,19,l)
);
}
);
width = 736;
}
);
unicode = 189;
},
{
glyphname = onequarter;
layers = (
{
layerId = "E5B5FB99-9938-4E00-AE85-C3C14992734E";
shapes = (
{
closed = 1;
nodes = (
(440,658,l),
(57,30,l),
(153,30,l),
(536,658,l)
);
},
{
closed = 1;
nodes = (
(717,356,l),
(634,356,l),
(634,229,l),
(489,229,l),
(489,356,l),
(406,356,l),
(406,188,ls),
(406,165,o),
(425,146,o),
(448,146,cs),
(634,146,l),
(634,19,l),
(717,19,l)
);
},
{
closed = 1;
nodes = (
(183,668,l),
(49,668,l),
(49,584,l),
(100,584,l),
(100,331,l),
(183,331,l)
);
}
);
width = 762;
}
);
unicode = 188;
},
{
glyphname = threequarters;
layers = (
{
layerId = "E5B5FB99-9938-4E00-AE85-C3C14992734E";
shapes = (
{
closed = 1;
nodes = (
(337,576,l),
(337,611,o),
(312,668,o),
(245,668,cs),
(51,668,l),
(51,584,l),
(245,584,ls),
(251,584,o),
(254,582,o),
(254,575,cs),
(254,541,l),
(51,541,l),
(51,458,l),
(254,458,l),
(254,424,ls),
(254,417,o),
(252,415,o),
(244,415,cs),
(51,415,l),
(51,331,l),
(245,331,ls),
(280,331,o),
(337,356,o),
(337,424,cs)
);
},
{
closed = 1;
nodes = (
(562,658,l),
(179,30,l),
(275,30,l),
(658,658,l)
);
},
{
closed = 1;
nodes = (
(839,356,l),
(756,356,l),
(756,229,l),
(611,229,l),
(611,356,l),
(528,356,l),
(528,188,ls),
(528,165,o),
(547,146,o),
(570,146,cs),
(756,146,l),
(756,19,l),
(839,19,l)
);
}
);
width = 884;
}
);
unicode = 190;
},
{
glyphname = onesuperior;
layers = (
{
layerId = "E5B5FB99-9938-4E00-AE85-C3C14992734E";
shapes = (
{
closed = 1;
nodes = (
(182,668,l),
(48,668,l),
(48,584,l),
(99,584,l),
(99,331,l),
(182,331,l)
);
}
);
width = 253;
}
);
unicode = 185;
},
{
glyphname = twosuperior;
layers = (
{
layerId = "E5B5FB99-9938-4E00-AE85-C3C14992734E";
shapes = (
{
closed = 1;
nodes = (
(375,415,l),
(147,415,l),
(147,448,ls),
(147,453,o),
(149,458,o),
(156,458,cs),
(283,458,ls),
(319,458,o),
(375,483,o),
(375,550,cs),
(375,576,ls),
(375,611,o),
(350,668,o),
(283,668,cs),
(89,668,l),
(89,584,l),
(283,584,l),
(283,584,o),
(287,584,o),
(292,575,c),
(292,550,l),
(292,544,o),
(289,541,o),
(282,541,cs),
(156,541,ls),
(89,541,o),
(64,485,o),
(64,449,cs),
(64,331,l),
(375,331,l)
);
}
);
width = 443;
}
);
unicode = 178;
},
{
glyphname = threesuperior;
layers = (
{
layerId = "E5B5FB99-9938-4E00-AE85-C3C14992734E";
shapes = (
{
closed = 1;
nodes = (
(356,576,ls),
(356,611,o),
(331,668,o),
(264,668,cs),
(70,668,l),
(70,584,l),
(264,584,ls),
(270,584,o),
(273,582,o),
(273,575,cs),
(273,541,l),
(70,541,l),
(70,458,l),
(273,458,l),
(273,424,ls),
(273,417,o),
(271,415,o),
(263,415,cs),
(70,415,l),
(70,331,l),
(264,331,ls),
(299,331,o),
(356,356,o),
(356,424,cs)
);
}
);
width = 417;
}
);
unicode = 179;
},
{
glyphname = period;
kernLeft = _kernperiod;
layers = (
{
layerId = "E5B5FB99-9938-4E00-AE85-C3C14992734E";
shapes = (
{
closed = 1;
nodes = (
(205,116,o),
(171,150,o),
(130,150,cs),
(89,150,o),
(55,116,o),
(55,75,cs),
(55,34,o),
(89,0,o),
(130,0,cs),
(171,0,o),
(205,34,o),
(205,75,cs)
);
}
);
width = 260;
}
);
unicode = 46;
},
{
glyphname = comma;
kernLeft = _kerncomma;
layers = (
{
layerId = "E5B5FB99-9938-4E00-AE85-C3C14992734E";
shapes = (
{
closed = 1;
nodes = (
(206,116,o),
(172,150,o),
(131,150,cs),
(90,150,o),
(56,116,o),
(56,75,cs),
(56,37,o),
(84,5,o),
(120,0,c),
(112,-32,o),
(100,-52,o),
(100,-52,c),
(164,-53,l),
(164,-53,o),
(204,7,o),
(206,72,c)
);
}
);
width = 263;
}
);
unicode = 44;
},
{
glyphname = colon;
kernLeft = _kerncolon;
layers = (
{
layerId = "E5B5FB99-9938-4E00-AE85-C3C14992734E";
shapes = (
{
closed = 1;
nodes = (
(214,116,o),
(180,150,o),
(139,150,cs),
(98,150,o),
(64,116,o),
(64,75,cs),
(64,34,o),
(98,0,o),
(139,0,cs),
(180,0,o),
(214,34,o),
(214,75,cs)
);
},
{
closed = 1;
nodes = (
(214,517,o),
(180,551,o),
(139,551,cs),
(98,551,o),
(64,517,o),
(64,476,cs),
(64,435,o),
(98,401,o),
(139,401,cs),
(180,401,o),
(214,435,o),
(214,476,cs)
);
}
);
width = 278;
}
);
unicode = 58;
},
{
glyphname = semicolon;
kernLeft = _kernsemicolon;
layers = (
{
layerId = "E5B5FB99-9938-4E00-AE85-C3C14992734E";
shapes = (
{
closed = 1;
nodes = (
(214,116,o),
(180,150,o),
(139,150,cs),
(98,150,o),
(64,116,o),
(64,75,cs),
(64,37,o),
(92,5,o),
(128,0,c),
(120,-32,o),
(108,-52,o),
(108,-52,c),
(172,-53,l),
(172,-53,o),
(212,7,o),
(214,72,c)
);
},
{
closed = 1;
nodes = (
(214,517,o),
(180,551,o),
(139,551,cs),
(98,551,o),
(64,517,o),
(64,476,cs),
(64,435,o),
(98,401,o),
(139,401,cs),
(180,401,o),
(214,435,o),
(214,476,cs)
);
}
);
width = 279;
}
);
unicode = 59;
},
{
glyphname = ellipsis;
kernLeft = _kernperiod;
layers = (
{
layerId = "E5B5FB99-9938-4E00-AE85-C3C14992734E";
shapes = (
{
closed = 1;
nodes = (
(205,116,o),
(171,150,o),
(130,150,cs),
(89,150,o),
(55,116,o),
(55,75,cs),
(55,34,o),
(89,0,o),
(130,0,cs),
(171,0,o),
(205,34,o),
(205,75,cs)
);
},
{
closed = 1;
nodes = (
(465,116,o),
(431,150,o),
(390,150,cs),
(349,150,o),
(315,116,o),
(315,75,cs),
(315,34,o),
(349,0,o),
(390,0,cs),
(431,0,o),
(465,34,o),
(465,75,cs)
);
},
{
closed = 1;
nodes = (
(725,116,o),
(691,150,o),
(650,150,cs),
(609,150,o),
(575,116,o),
(575,75,cs),
(575,34,o),
(609,0,o),
(650,0,cs),
(691,0,o),
(725,34,o),
(725,75,cs)
);
}
);
width = 780;
}
);
unicode = 8230;
},
{
glyphname = exclam;
layers = (
{
layerId = "E5B5FB99-9938-4E00-AE85-C3C14992734E";
shapes = (
{
closed = 1;
nodes = (
(74,700,l),
(95,188,l),
(167,188,l),
(188,700,l)
);
},
{
closed = 1;
nodes = (
(206,116,o),
(172,150,o),
(131,150,cs),
(90,150,o),
(56,116,o),
(56,75,cs),
(56,34,o),
(90,0,o),
(131,0,cs),
(172,0,o),
(206,34,o),
(206,75,cs)
);
}
);
width = 262;
}
);
unicode = 33;
},
{
glyphname = exclamdown;
layers = (
{
layerId = "E5B5FB99-9938-4E00-AE85-C3C14992734E";
shapes = (
{
closed = 1;
nodes = (
(188,0,l),
(167,512,l),
(95,512,l),
(74,0,l)
);
},
{
closed = 1;
nodes = (
(56,584,o),
(90,550,o),
(131,550,cs),
(172,550,o),
(206,584,o),
(206,625,cs),
(206,666,o),
(172,700,o),
(131,700,cs),
(90,700,o),
(56,666,o),
(56,625,cs)
);
}
);
width = 262;
}
);
unicode = 161;
},
{
glyphname = question;
layers = (
{
layerId = "E5B5FB99-9938-4E00-AE85-C3C14992734E";
shapes = (
{
closed = 1;
nodes = (
(759,599,o),
(658,700,o),
(534,700,cs),
(34,700,l),
(34,600,l),
(534,600,ls),
(603,600,o),
(659,544,o),
(659,475,cs),
(659,406,o),
(603,350,o),
(534,350,cs),
(409,350,ls),
(340,350,o),
(284,294,o),
(284,225,cs),
(284,188,l),
(384,188,l),
(384,225,ls),
(384,239,o),
(395,250,o),
(409,250,cs),
(534,250,ls),
(658,250,o),
(759,351,o),
(759,475,cs)
);
},
{
closed = 1;
nodes = (
(409,116,o),
(375,150,o),
(334,150,cs),
(292,150,o),
(259,116,o),
(259,75,cs),
(259,34,o),
(292,0,o),
(334,0,cs),
(375,0,o),
(409,34,o),
(409,75,cs)
);
}
);
width = 798;
}
);
unicode = 63;
},
{
glyphname = questiondown;
layers = (
{
layerId = "E5B5FB99-9938-4E00-AE85-C3C14992734E";
shapes = (
{
closed = 1;
nodes = (
(39,101,o),
(140,0,o),
(264,0,cs),
(764,0,l),
(764,100,l),
(264,100,ls),
(195,100,o),
(139,156,o),
(139,225,cs),
(139,294,o),
(195,350,o),
(264,350,cs),
(389,350,ls),
(458,350,o),
(514,406,o),
(514,475,cs),
(514,512,l),
(414,512,l),
(414,475,ls),
(414,461,o),
(403,450,o),
(389,450,cs),
(264,450,ls),
(140,450,o),
(39,349,o),
(39,225,cs)
);
},
{
closed = 1;
nodes = (
(389,584,o),
(423,550,o),
(464,550,cs),
(506,550,o),
(539,584,o),
(539,625,cs),
(539,666,o),
(506,700,o),
(464,700,cs),
(423,700,o),
(389,666,o),
(389,625,cs)
);
}
);
width = 798;
}
);
unicode = 191;
},
{
glyphname = periodcentered;
layers = (
{
layerId = "E5B5FB99-9938-4E00-AE85-C3C14992734E";
shapes = (
{
closed = 1;
nodes = (
(213,397,o),
(179,431,o),
(138,431,cs),
(97,431,o),
(63,397,o),
(63,356,cs),
(63,315,o),
(97,281,o),
(138,281,cs),
(179,281,o),
(213,315,o),
(213,356,cs)
);
}
);
width = 276;
}
);
unicode = 183;
},
{
glyphname = bullet;
layers = (
{
layerId = "E5B5FB99-9938-4E00-AE85-C3C14992734E";
shapes = (
{
closed = 1;
nodes = (
(278,408,o),
(233,453,o),
(180,453,cs),
(125,453,o),
(82,408,o),
(82,356,cs),
(82,301,o),
(125,258,o),
(180,258,cs),
(233,258,o),
(278,301,o),
(278,356,cs)
);
}
);
width = 359;
}
);
unicode = 8226;
},
{
glyphname = asterisk;
layers = (
{
layerId = "E5B5FB99-9938-4E00-AE85-C3C14992734E";
shapes = (
{
closed = 1;
nodes = (
(433,675,l),
(313,577,l),
(323,739,l),
(223,739,l),
(232,577,l),
(113,675,l),
(55,594,l),
(204,499,l),
(55,404,l),
(113,323,l),
(232,420,l),
(223,259,l),
(323,259,l),
(313,420,l),
(433,323,l),
(491,404,l),
(341,499,l),
(491,594,l)
);
}
);
width = 546;
}
);
unicode = 42;
},
{
glyphname = numbersign;
layers = (
{
layerId = "E5B5FB99-9938-4E00-AE85-C3C14992734E";
shapes = (
{
closed = 1;
nodes = (
(85,396,l),
(212,396,l),
(186,277,l),
(57,277,l),
(35,183,l),
(165,183,l),
(125,0,l),
(224,0,l),
(264,183,l),
(386,183,l),
(346,0,l),
(445,0,l),
(485,183,l),
(614,183,l),
(634,277,l),
(506,277,l),
(532,396,l),
(664,396,l),
(684,490,l),
(553,490,l),
(593,671,l),
(494,671,l),
(454,490,l),
(332,490,l),
(372,671,l),
(273,671,l),
(233,490,l),
(107,490,l)
);
},
{
closed = 1;
nodes = (
(311,396,l),
(433,396,l),
(407,277,l),
(285,277,l)
);
}
);
width = 720;
}
);
unicode = 35;
},
{
glyphname = slash;
layers = (
{
layerId = "E5B5FB99-9938-4E00-AE85-C3C14992734E";
shapes = (
{
closed = 1;
nodes = (
(396,700,l),
(28,0,l),
(142,0,l),
(510,700,l)
);
}
);
width = 536;
}
);
unicode = 47;
},
{
glyphname = backslash;
layers = (
{
layerId = "E5B5FB99-9938-4E00-AE85-C3C14992734E";
shapes = (
{
closed = 1;
nodes = (
(140,700,l),
(26,700,l),
(394,0,l),
(508,0,l)
);
}
);
width = 536;
}
);
unicode = 92;
},
{
glyphname = hyphen;
kernLeft = _kernhyphen;
kernRight = _kernhyphen;
layers = (
{
layerId = "E5B5FB99-9938-4E00-AE85-C3C14992734E";
shapes = (
{
closed = 1;
nodes = (
(614,400,l),
(64,400,l),
(64,300,l),
(614,300,l)
);
}
);
width = 678;
}
);
unicode = 45;
},
{
glyphname = uni00AD;
layers = (
{
layerId = "E5B5FB99-9938-4E00-AE85-C3C14992734E";
shapes = (
{
closed = 1;
nodes = (
(614,400,l),
(64,400,l),
(64,300,l),
(614,300,l)
);
}
);
width = 678;
}
);
unicode = 173;
},
{
glyphname = endash;
layers = (
{
layerId = "E5B5FB99-9938-4E00-AE85-C3C14992734E";
shapes = (
{
closed = 1;
nodes = (
(464,400,l),
(64,400,l),
(64,300,l),
(464,300,l)
);
}
);
width = 528;
}
);
unicode = 8211;
},
{
glyphname = emdash;
layers = (
{
layerId = "E5B5FB99-9938-4E00-AE85-C3C14992734E";
shapes = (
{
closed = 1;
nodes = (
(864,400,l),
(64,400,l),
(64,300,l),
(864,300,l)
);
}
);
width = 928;
}
);
unicode = 8212;
},
{
glyphname = underscore;
layers = (
{
layerId = "E5B5FB99-9938-4E00-AE85-C3C14992734E";
shapes = (
{
closed = 1;
nodes = (
(610,-88,l),
(60,-88,l),
(60,-188,l),
(610,-188,l)
);
}
);
width = 670;
}
);
unicode = 95;
},
{
glyphname = parenleft;
layers = (
{
layerId = "E5B5FB99-9938-4E00-AE85-C3C14992734E";
shapes = (
{
closed = 1;
nodes = (
(305,-103,ls),
(303,-101,o),
(138,75,o),
(138,363,cs),
(138,627,o),
(304,827,o),
(307,830,cs),
(323,850,l),
(197,850,l),
(142,770,o),
(38,589,o),
(38,363,cs),
(38,123,o),
(137,-47,o),
(194,-125,c),
(326,-125,l)
);
}
);
width = 326;
}
);
unicode = 40;
},
{
glyphname = parenright;
layers = (
{
layerId = "E5B5FB99-9938-4E00-AE85-C3C14992734E";
shapes = (
{
closed = 1;
nodes = (
(0,-125,l),
(132,-125,l),
(189,-47,o),
(288,123,o),
(288,363,cs),
(288,589,o),
(184,770,o),
(129,850,c),
(3,850,l),
(19,830,ls),
(22,827,o),
(188,627,o),
(188,363,cs),
(188,75,o),
(23,-101,o),
(21,-103,cs)
);
}
);
width = 326;
}
);
unicode = 41;
},
{
glyphname = braceleft;
layers = (
{
layerId = "E5B5FB99-9938-4E00-AE85-C3C14992734E";
shapes = (
{
closed = 1;
nodes = (
(374,848,l),
(324,848,ls),
(225,848,o),
(126,786,o),
(126,675,cs),
(126,670,o),
(125,607,o),
(125,488,cs),
(125,430,o),
(84,413,o),
(49,413,cs),
(21,413,o),
(-1,390,o),
(-1,363,cs),
(-1,335,o),
(21,313,o),
(49,313,cs),
(92,313,o),
(125,282,o),
(125,237,cs),
(124,50,ls),
(124,-78,o),
(243,-125,o),
(322,-125,cs),
(372,-125,l),
(372,-25,l),
(322,-25,l),
(278,-25,o),
(224,-3,o),
(224,50,cs),
(225,238,ls),
(225,277,o),
(210,326,o),
(175,362,c),
(205,390,o),
(225,431,o),
(225,488,cs),
(225,611,o),
(226,674,o),
(226,675,c),
(226,676,l),
(226,728,o),
(277,748,o),
(324,748,cs),
(374,748,l)
);
}
);
width = 402;
}
);
unicode = 123;
},
{
glyphname = braceright;
layers = (
{
layerId = "E5B5FB99-9938-4E00-AE85-C3C14992734E";
shapes = (
{
closed = 1;
nodes = (
(28,748,l),
(78,748,ls),
(125,748,o),
(176,728,o),
(176,676,c),
(176,675,l),
(176,674,o),
(177,611,o),
(177,488,cs),
(177,431,o),
(197,390,o),
(227,362,c),
(192,326,o),
(177,277,o),
(177,238,cs),
(178,50,ls),
(178,-3,o),
(124,-25,o),
(80,-25,c),
(30,-25,l),
(30,-125,l),
(80,-125,ls),
(159,-125,o),
(278,-78,o),
(278,50,cs),
(277,237,ls),
(277,282,o),
(310,313,o),
(353,313,cs),
(381,313,o),
(403,335,o),
(403,363,cs),
(403,390,o),
(381,413,o),
(353,413,cs),
(318,413,o),
(277,430,o),
(277,488,cs),
(277,607,o),
(276,670,o),
(276,675,cs),
(276,786,o),
(177,848,o),
(78,848,cs),
(28,848,l)
);
}
);
width = 402;
}
);
unicode = 125;
},
{
glyphname = bracketleft;
layers = (
{
layerId = "E5B5FB99-9938-4E00-AE85-C3C14992734E";
shapes = (
{
closed = 1;
nodes = (
(326,848,l),
(126,848,ls),
(98,848,o),
(76,826,o),
(76,798,cs),
(76,-75,ls),
(76,-103,o),
(98,-125,o),
(126,-125,cs),
(326,-125,l),
(326,-25,l),
(176,-25,l),
(176,748,l),
(326,748,l)
);
}
);
width = 355;
}
);
unicode = 91;
},
{
glyphname = bracketright;
layers = (
{
layerId = "E5B5FB99-9938-4E00-AE85-C3C14992734E";
shapes = (
{
closed = 1;
nodes = (
(29,748,l),
(179,748,l),
(179,-25,l),
(29,-25,l),
(29,-125,l),
(229,-125,ls),
(257,-125,o),
(279,-103,o),
(279,-75,cs),
(279,798,ls),
(279,826,o),
(257,848,o),
(229,848,cs),
(29,848,l)
);
}
);
width = 355;
}
);
unicode = 93;
},
{
glyphname = quotesinglbase;
layers = (
{
layerId = "E5B5FB99-9938-4E00-AE85-C3C14992734E";
shapes = (
{
closed = 1;
nodes = (
(206,116,o),
(172,150,o),
(131,150,cs),
(90,150,o),
(56,116,o),
(56,75,cs),
(56,37,o),
(84,5,o),
(120,0,c),
(112,-32,o),
(100,-52,o),
(100,-52,c),
(164,-53,l),
(164,-53,o),
(204,7,o),
(206,72,c)
);
}
);
width = 263;
}
);
unicode = 8218;
},
{
glyphname = quotedblbase;
layers = (
{
layerId = "E5B5FB99-9938-4E00-AE85-C3C14992734E";
shapes = (
{
closed = 1;
nodes = (
(206,116,o),
(172,150,o),
(131,150,cs),
(90,150,o),
(56,116,o),
(56,75,cs),
(56,37,o),
(84,5,o),
(120,0,c),
(112,-32,o),
(100,-52,o),
(100,-52,c),
(164,-53,l),
(164,-53,o),
(204,7,o),
(206,72,c)
);
},
{
closed = 1;
nodes = (
(396,116,o),
(362,150,o),
(321,150,cs),
(280,150,o),
(246,116,o),
(246,75,cs),
(246,37,o),
(274,5,o),
(310,0,c),
(302,-32,o),
(290,-52,o),
(290,-52,c),
(354,-53,l),
(354,-53,o),
(394,7,o),
(396,72,c)
);
}
);
width = 453;
}
);
unicode = 8222;
},
{
glyphname = quotedblleft;
layers = (
{
layerId = "E5B5FB99-9938-4E00-AE85-C3C14992734E";
shapes = (
{
closed = 1;
nodes = (
(243,532,o),
(277,498,o),
(318,498,cs),
(359,498,o),
(393,532,o),
(393,573,cs),
(393,610,o),
(364,642,o),
(328,647,c),
(337,680,o),
(349,700,o),
(349,700,c),
(285,701,l),
(285,701,o),
(244,641,o),
(243,576,c)
);
},
{
closed = 1;
nodes = (
(53,532,o),
(87,498,o),
(128,498,cs),
(169,498,o),
(203,532,o),
(203,573,cs),
(203,610,o),
(174,642,o),
(138,647,c),
(147,680,o),
(159,700,o),
(159,700,c),
(95,701,l),
(95,701,o),
(54,641,o),
(53,576,c)
);
}
);
width = 443;
}
);
unicode = 8220;
},
{
glyphname = quotedblright;
layers = (
{
layerId = "E5B5FB99-9938-4E00-AE85-C3C14992734E";
shapes = (
{
closed = 1;
nodes = (
(199,667,o),
(165,701,o),
(124,701,cs),
(83,701,o),
(49,667,o),
(49,626,cs),
(49,588,o),
(77,556,o),
(113,551,c),
(105,519,o),
(93,499,o),
(93,499,c),
(157,498,l),
(157,498,o),
(197,558,o),
(199,623,c)
);
},
{
closed = 1;
nodes = (
(389,667,o),
(355,701,o),
(314,701,cs),
(273,701,o),
(239,667,o),
(239,626,cs),
(239,588,o),
(267,556,o),
(303,551,c),
(295,519,o),
(283,499,o),
(283,499,c),
(347,498,l),
(347,498,o),
(387,558,o),
(389,623,c)
);
}
);
width = 441;
}
);
unicode = 8221;
},
{
glyphname = quoteleft;
layers = (
{
layerId = "E5B5FB99-9938-4E00-AE85-C3C14992734E";
shapes = (
{
closed = 1;
nodes = (
(53,532,o),
(87,498,o),
(128,498,cs),
(169,498,o),
(203,532,o),
(203,573,cs),
(203,610,o),
(174,642,o),
(138,647,c),
(147,680,o),
(159,700,o),
(159,700,c),
(95,701,l),
(95,701,o),
(54,641,o),
(53,576,c)
);
}
);
width = 253;
}
);
unicode = 8216;
},
{
glyphname = quoteright;
layers = (
{
layerId = "E5B5FB99-9938-4E00-AE85-C3C14992734E";
shapes = (
{
closed = 1;
nodes = (
(199,667,o),
(165,701,o),
(124,701,cs),
(83,701,o),
(49,667,o),
(49,626,cs),
(49,588,o),
(77,556,o),
(113,551,c),
(105,519,o),
(93,499,o),
(93,499,c),
(157,498,l),
(157,498,o),
(197,558,o),
(199,623,c)
);
}
);
width = 251;
}
);
unicode = 8217;
},
{
glyphname = guillemotleft;
layers = (
{
layerId = "E5B5FB99-9938-4E00-AE85-C3C14992734E";
shapes = (
{
closed = 1;
nodes = (
(264,488,l),
(57,303,ls),
(46,293,o),
(40,279,o),
(40,265,cs),
(40,251,o),
(46,237,o),
(57,228,cs),
(260,50,l),
(392,50,l),
(146,266,l),
(394,488,l)
);
},
{
closed = 1;
nodes = (
(494,488,l),
(287,303,ls),
(276,293,o),
(270,279,o),
(270,265,cs),
(270,251,o),
(276,237,o),
(287,228,cs),
(490,50,l),
(622,50,l),
(376,266,l),
(624,488,l)
);
}
);
width = 667;
}
);
unicode = 171;
},
{
glyphname = guillemotright;
layers = (
{
layerId = "E5B5FB99-9938-4E00-AE85-C3C14992734E";
shapes = (
{
closed = 1;
nodes = (
(273,488,l),
(521,266,l),
(275,50,l),
(407,50,l),
(610,228,ls),
(621,237,o),
(627,251,o),
(627,265,cs),
(627,279,o),
(621,293,o),
(610,303,cs),
(403,488,l)
);
},
{
closed = 1;
nodes = (
(43,488,l),
(291,266,l),
(45,50,l),
(177,50,l),
(380,228,ls),
(391,237,o),
(397,251,o),
(397,265,cs),
(397,279,o),
(391,293,o),
(380,303,cs),
(173,488,l)
);
}
);
width = 667;
}
);
unicode = 187;
},
{
glyphname = guilsinglleft;
layers = (
{
layerId = "E5B5FB99-9938-4E00-AE85-C3C14992734E";
shapes = (
{
closed = 1;
nodes = (
(264,488,l),
(57,303,ls),
(46,293,o),
(40,279,o),
(40,265,cs),
(40,251,o),
(46,237,o),
(57,228,cs),
(260,50,l),
(392,50,l),
(146,266,l),
(394,488,l)
);
}
);
width = 437;
}
);
unicode = 8249;
},
{
glyphname = guilsinglright;
layers = (
{
layerId = "E5B5FB99-9938-4E00-AE85-C3C14992734E";
shapes = (
{
closed = 1;
nodes = (
(43,488,l),
(291,266,l),
(45,50,l),
(177,50,l),
(380,228,ls),
(391,237,o),
(397,251,o),
(397,265,cs),
(397,279,o),
(391,293,o),
(380,303,cs),
(173,488,l)
);
}
);
width = 437;
}
);
unicode = 8250;
},
{
glyphname = quotedbl;
layers = (
{
layerId = "E5B5FB99-9938-4E00-AE85-C3C14992734E";
shapes = (
{
closed = 1;
nodes = (
(159,701,l),
(59,701,l),
(78,455,l),
(139,455,l)
);
},
{
closed = 1;
nodes = (
(299,701,l),
(199,701,l),
(218,455,l),
(279,455,l)
);
}
);
width = 357;
}
);
unicode = 34;
},
{
glyphname = quotesingle;
layers = (
{
layerId = "E5B5FB99-9938-4E00-AE85-C3C14992734E";
shapes = (
{
closed = 1;
nodes = (
(159,701,l),
(59,701,l),
(78,455,l),
(139,455,l)
);
}
);
width = 217;
}
);
unicode = 39;
},
{
glyphname = florin;
layers = (
{
layerId = "E5B5FB99-9938-4E00-AE85-C3C14992734E";
shapes = (
{
closed = 1;
nodes = (
(622,750,l),
(345,750,l),
(202,749,o),
(73,639,o),
(73,500,c),
(72,500,l),
(72,75,ls),
(72,-21,o),
(-5,-99,o),
(-101,-100,c),
(-178,-100,l),
(-178,-200,l),
(-101,-200,l),
(42,-199,o),
(171,-91,o),
(171,50,c),
(172,50,l),
(172,475,ls),
(172,571,o),
(249,649,o),
(345,650,c),
(622,650,l)
);
},
{
closed = 1;
nodes = (
(522,500,l),
(222,500,l),
(222,400,l),
(522,400,l)
);
}
);
width = 541;
}
);
unicode = 402;
},
{
glyphname = at;
layers = (
{
layerId = "E5B5FB99-9938-4E00-AE85-C3C14992734E";
shapes = (
{
closed = 1;
nodes = (
(416,289,l),
(295,289,ls),
(219,289,o),
(191,227,o),
(191,185,cs),
(191,108,o),
(253,81,o),
(295,81,cs),
(545,81,ls),
(622,81,o),
(649,143,o),
(649,185,cs),
(649,372,ls),
(649,495,o),
(550,539,o),
(483,539,cs),
(233,539,ls),
(110,539,o),
(66,439,o),
(66,372,cs),
(66,122,ls),
(66,0,o),
(166,-44,o),
(233,-44,cs),
(295,-44,l),
(295,39,l),
(233,39,ls),
(213,39,o),
(149,46,o),
(149,122,cs),
(149,372,ls),
(149,392,o),
(157,456,o),
(233,456,cs),
(482,456,ls),
(502,456,o),
(566,448,o),
(566,372,cs),
(566,185,ls),
(566,164,o),
(552,164,o),
(545,164,cs),
(524,164,l),
(524,310,ls),
(524,386,o),
(462,414,o),
(420,414,cs),
(246,414,l),
(246,331,l),
(420,331,ls),
(441,331,o),
(441,315,o),
(441,310,cs),
(441,164,l),
(295,164,ls),
(274,164,o),
(274,180,o),
(274,185,cs),
(274,206,o),
(290,206,o),
(295,206,cs),
(416,206,l)
);
}
);
width = 697;
}
);
unicode = 64;
},
{
glyphname = ampersand;
layers = (
{
layerId = "E5B5FB99-9938-4E00-AE85-C3C14992734E";
shapes = (
{
closed = 1;
nodes = (
(707,300,l),
(807,300,l),
(807,400,l),
(507,400,l),
(507,300,l),
(607,300,l),
(607,100,l),
(257,100,ls),
(202,100,o),
(157,145,o),
(157,200,cs),
(157,255,o),
(202,300,o),
(257,300,cs),
(407,300,l),
(407,400,l),
(257,400,l),
(253,400,l),
(200,402,o),
(157,446,o),
(157,500,cs),
(157,555,o),
(202,600,o),
(257,600,cs),
(707,600,l),
(707,700,l),
(257,700,ls),
(147,700,o),
(57,610,o),
(57,500,cs),
(57,440,o),
(83,386,o),
(125,350,c),
(83,313,o),
(57,259,o),
(57,200,cs),
(57,90,o),
(147,0,o),
(257,0,cs),
(707,0,l)
);
}
);
width = 838;
}
);
unicode = 38;
},
{
glyphname = paragraph;
layers = (
{
layerId = "E5B5FB99-9938-4E00-AE85-C3C14992734E";
shapes = (
{
closed = 1;
nodes = (
(36,312,o),
(148,200,o),
(286,200,cs),
(428,200,l),
(428,299,l),
(286,299,ls),
(203,299,o),
(136,367,o),
(136,450,cs),
(136,533,o),
(203,600,o),
(286,600,cs),
(493,600,l),
(493,0,l),
(593,0,l),
(593,600,l),
(744,600,l),
(744,0,l),
(844,0,l),
(844,700,l),
(286,700,ls),
(148,700,o),
(36,588,o),
(36,450,cs)
);
}
);
width = 931;
}
);
unicode = 182;
},
{
glyphname = section;
layers = (
{
layerId = "E5B5FB99-9938-4E00-AE85-C3C14992734E";
shapes = (
{
closed = 1;
nodes = (
(864,136,o),
(854,171,o),
(837,200,c),
(854,230,o),
(864,264,o),
(864,300,cs),
(864,410,o),
(774,500,o),
(664,500,cs),
(255,500,ls),
(200,500,o),
(155,545,o),
(155,600,cs),
(155,655,o),
(200,700,o),
(255,700,cs),
(814,700,l),
(814,800,l),
(255,800,ls),
(145,800,o),
(55,710,o),
(55,600,cs),
(55,563,o),
(65,529,o),
(82,500,c),
(65,470,o),
(55,436,o),
(55,400,cs),
(55,290,o),
(145,200,o),
(255,200,cs),
(664,200,ls),
(719,200,o),
(764,155,o),
(764,100,cs),
(764,45,o),
(719,0,o),
(664,0,cs),
(55,0,l),
(55,-100,l),
(664,-100,ls),
(774,-100,o),
(864,-10,o),
(864,100,cs)
);
},
{
closed = 1;
nodes = (
(764,291,o),
(762,283,o),
(760,275,c),
(732,291,o),
(699,300,o),
(664,300,cs),
(255,300,ls),
(200,300,o),
(155,345,o),
(155,400,cs),
(155,408,o),
(156,417,o),
(158,425,c),
(187,409,o),
(220,400,o),
(255,400,cs),
(664,400,ls),
(719,400,o),
(764,355,o),
(764,300,cs)
);
}
);
width = 907;
}
);
unicode = 167;
},
{
glyphname = copyright;
layers = (
{
layerId = "E5B5FB99-9938-4E00-AE85-C3C14992734E";
shapes = (
{
closed = 1;
nodes = (
(474,395,l),
(474,517,o),
(381,550,o),
(333,550,cs),
(210,550,ls),
(161,550,o),
(69,517,o),
(69,395,cs),
(69,331,ls),
(69,209,o),
(161,177,o),
(210,177,cs),
(333,177,ls),
(381,177,o),
(474,209,o),
(474,331,cs)
);
},
{
closed = 1;
nodes = (
(421,331,l),
(421,233,o),
(342,230,o),
(333,230,cs),
(210,230,ls),
(201,230,o),
(122,233,o),
(122,331,cs),
(122,395,ls),
(122,493,o),
(201,497,o),
(210,497,cs),
(333,497,ls),
(341,497,o),
(421,493,o),
(421,395,cs)
);
},
{
closed = 1;
nodes = (
(355,312,l),
(264,312,ls),
(257,312,o),
(221,313,o),
(221,349,cs),
(221,381,ls),
(221,395,o),
(227,418,o),
(263,418,cs),
(355,418,l),
(355,472,l),
(263,472,ls),
(198,472,o),
(169,425,o),
(169,381,cs),
(169,349,ls),
(169,282,o),
(225,258,o),
(264,258,cs),
(355,258,l)
);
}
);
width = 543;
}
);
unicode = 169;
},
{
glyphname = registered;
layers = (
{
layerId = "E5B5FB99-9938-4E00-AE85-C3C14992734E";
shapes = (
{
closed = 1;
nodes = (
(461,547,l),
(461,669,o),
(368,702,o),
(320,702,cs),
(197,702,ls),
(148,702,o),
(56,669,o),
(56,547,cs),
(56,483,ls),
(56,361,o),
(148,329,o),
(197,329,cs),
(320,329,ls),
(368,329,o),
(461,361,o),
(461,483,cs)
);
},
{
closed = 1;
nodes = (
(367,572,l),
(367,597,o),
(349,624,o),
(315,624,cs),
(154,624,l),
(154,421,l),
(207,421,l),
(207,570,l),
(314,570,l),
(314,549,ls),
(314,536,o),
(306,528,o),
(292,528,cs),
(225,528,l),
(225,474,l),
(337,384,l),
(329,382,o),
(322,382,o),
(320,382,cs),
(197,382,ls),
(144,382,o),
(109,429,o),
(109,483,cs),
(109,547,ls),
(109,645,o),
(188,649,o),
(197,649,cs),
(320,649,ls),
(375,649,o),
(408,601,o),
(408,547,cs),
(408,483,ls),
(408,450,o),
(399,428,o),
(387,413,c),
(307,475,l),
(335,481,o),
(367,502,o),
(367,549,cs)
);
}
);
width = 517;
}
);
unicode = 174;
},
{
glyphname = trademark;
layers = (
{
layerId = "E5B5FB99-9938-4E00-AE85-C3C14992734E";
shapes = (
{
closed = 1;
nodes = (
(617,553,l),
(619,604,o),
(658,646,o),
(706,646,cs),
(720,646,l),
(720,413,l),
(774,413,l),
(774,700,l),
(706,700,ls),
(659,700,o),
(617,675,o),
(591,638,c),
(565,675,o),
(522,700,o),
(474,700,cs),
(407,700,l),
(407,413,l),
(461,413,l),
(461,646,l),
(474,646,ls),
(523,646,o),
(563,606,o),
(563,557,cs),
(563,413,l),
(617,413,l)
);
},
{
closed = 1;
nodes = (
(250,646,l),
(386,646,l),
(386,700,l),
(58,700,l),
(58,646,l),
(195,646,l),
(195,413,l),
(250,413,l)
);
}
);
width = 848;
}
);
unicode = 8482;
},
{
glyphname = degree;
layers = (
{
layerId = "E5B5FB99-9938-4E00-AE85-C3C14992734E";
shapes = (
{
closed = 1;
nodes = (
(51,556,o),
(80,513,o),
(150,513,cs),
(219,513,o),
(249,556,o),
(249,606,cs),
(249,657,o),
(224,700,o),
(150,700,cs),
(84,700,o),
(51,657,o),
(51,606,cs)
);
},
{
closed = 1;
nodes = (
(118,625,o),
(129,640,o),
(152,640,cs),
(174,640,o),
(186,625,o),
(186,606,cs),
(186,587,o),
(174,572,o),
(152,572,cs),
(129,572,o),
(118,587,o),
(118,606,cs)
);
}
);
width = 300;
}
);
unicode = 176;
},
{
glyphname = bar;
layers = (
{
layerId = "E5B5FB99-9938-4E00-AE85-C3C14992734E";
shapes = (
{
closed = 1;
nodes = (
(176,850,l),
(76,850,l),
(76,-125,l),
(176,-125,l)
);
}
);
width = 252;
}
);
unicode = 124;
},
{
glyphname = brokenbar;
layers = (
{
layerId = "E5B5FB99-9938-4E00-AE85-C3C14992734E";
shapes = (
{
closed = 1;
nodes = (
(178,850,l),
(78,850,l),
(78,438,l),
(178,438,l)
);
},
{
closed = 1;
nodes = (
(178,288,l),
(78,288,l),
(78,-125,l),
(178,-125,l)
);
}
);
width = 256;
}
);
unicode = 166;
},
{
glyphname = dagger;
layers = (
{
layerId = "E5B5FB99-9938-4E00-AE85-C3C14992734E";
shapes = (
{
closed = 1;
nodes = (
(262,563,l),
(387,563,l),
(387,663,l),
(262,663,l),
(262,850,l),
(162,850,l),
(162,663,l),
(37,663,l),
(37,563,l),
(162,563,l),
(162,-125,l),
(262,-125,l)
);
}
);
width = 424;
}
);
unicode = 8224;
},
{
glyphname = daggerdbl;
layers = (
{
layerId = "E5B5FB99-9938-4E00-AE85-C3C14992734E";
shapes = (
{
closed = 1;
nodes = (
(394,163,l),
(269,163,l),
(269,563,l),
(394,563,l),
(394,663,l),
(269,663,l),
(269,850,l),
(169,850,l),
(169,663,l),
(44,663,l),
(44,563,l),
(169,563,l),
(169,163,l),
(44,163,l),
(44,63,l),
(169,63,l),
(169,-125,l),
(269,-125,l),
(269,63,l),
(394,63,l)
);
}
);
width = 438;
}
);
unicode = 8225;
},
{
glyphname = Euro;
layers = (
{
layerId = "E5B5FB99-9938-4E00-AE85-C3C14992734E";
shapes = (
{
closed = 1;
nodes = (
(687,500,l),
(356,500,l),
(393,560,o),
(456,600,o),
(538,600,cs),
(989,600,l),
(989,700,l),
(538,700,ls),
(398,700,o),
(292,618,o),
(244,500,c),
(138,500,l),
(103,400,l),
(219,400,l),
(217,383,o),
(216,367,o),
(216,350,cs),
(216,333,o),
(217,316,o),
(219,300,c),
(68,300,l),
(33,200,l),
(244,200,l),
(292,81,o),
(398,0,o),
(538,0,cs),
(989,0,l),
(989,100,l),
(538,100,ls),
(456,100,o),
(393,139,o),
(356,200,c),
(582,200,l),
(617,300,l),
(320,300,l),
(317,316,o),
(316,333,o),
(316,350,cs),
(316,367,o),
(317,384,o),
(320,400,c),
(652,400,l)
);
}
);
width = 1045;
}
);
unicode = 8364;
},
{
glyphname = cent;
layers = (
{
layerId = "E5B5FB99-9938-4E00-AE85-C3C14992734E";
shapes = (
{
closed = 1;
nodes = (
(484,249,l),
(241,249,ls),
(182,249,o),
(134,298,o),
(134,357,cs),
(134,417,o),
(182,466,o),
(241,466,cs),
(484,466,l),
(484,564,l),
(343,564,l),
(343,700,l),
(250,700,l),
(250,564,l),
(241,564,ls),
(128,564,o),
(36,470,o),
(36,358,cs),
(36,249,o),
(117,151,o),
(227,151,cs),
(250,151,l),
(250,0,l),
(343,0,l),
(343,151,l),
(484,151,l)
);
}
);
width = 542;
}
);
unicode = 162;
},
{
glyphname = currency;
layers = (
{
layerId = "E5B5FB99-9938-4E00-AE85-C3C14992734E";
shapes = (
{
closed = 1;
nodes = (
(351,314,o),
(314,277,o),
(268,277,cs),
(222,277,o),
(184,314,o),
(184,360,cs),
(184,406,o),
(222,443,o),
(268,443,cs),
(314,443,o),
(351,406,o),
(351,360,cs)
);
},
{
closed = 1;
nodes = (
(418,289,l),
(428,310,o),
(434,334,o),
(434,360,cs),
(434,386,o),
(428,410,o),
(417,432,c),
(483,491,l),
(416,561,l),
(352,503,l),
(327,518,o),
(299,527,o),
(268,527,cs),
(236,527,o),
(207,518,o),
(182,503,c),
(118,561,l),
(52,491,l),
(117,431,l),
(106,410,o),
(101,385,o),
(101,360,cs),
(101,335,o),
(106,311,o),
(116,289,c),
(52,231,l),
(118,161,l),
(180,217,l),
(206,202,o),
(236,193,o),
(268,193,cs),
(299,193,o),
(329,201,o),
(354,217,c),
(416,161,l),
(483,231,l)
);
}
);
width = 535;
}
);
unicode = 164;
},
{
glyphname = dollar;
layers = (
{
layerId = "E5B5FB99-9938-4E00-AE85-C3C14992734E";
shapes = (
{
closed = 1;
nodes = (
(498,363,o),
(437,424,o),
(361,424,cs),
(169,424,ls),
(157,424,o),
(148,433,o),
(148,445,cs),
(148,456,o),
(156,466,o),
(169,466,cs),
(463,466,l),
(463,564,l),
(320,564,l),
(320,700,l),
(227,700,l),
(227,564,l),
(169,564,ls),
(103,564,o),
(50,511,o),
(50,445,cs),
(50,379,o),
(103,326,o),
(169,326,cs),
(361,326,ls),
(383,326,o),
(400,309,o),
(400,287,cs),
(400,266,o),
(383,249,o),
(361,249,cs),
(50,249,l),
(50,151,l),
(227,151,l),
(227,0,l),
(320,0,l),
(320,151,l),
(361,151,ls),
(437,151,o),
(498,212,o),
(498,287,cs)
);
}
);
width = 535;
}
);
unicode = 36;
},
{
glyphname = sterling;
layers = (
{
layerId = "E5B5FB99-9938-4E00-AE85-C3C14992734E";
shapes = (
{
closed = 1;
nodes = (
(808,100,l),
(239,100,l),
(239,300,l),
(539,300,l),
(539,400,l),
(239,400,l),
(239,425,ls),
(239,521,o),
(316,599,o),
(412,600,c),
(639,600,l),
(639,700,l),
(412,700,l),
(269,699,o),
(139,591,o),
(139,450,cs),
(139,400,l),
(39,400,l),
(39,300,l),
(139,300,l),
(139,0,l),
(808,0,l)
);
}
);
width = 841;
}
);
unicode = 163;
},
{
glyphname = yen;
layers = (
{
layerId = "E5B5FB99-9938-4E00-AE85-C3C14992734E";
shapes = (
{
closed = 1;
nodes = (
(842,700,l),
(742,700,l),
(742,500,ls),
(742,417,o),
(674,350,o),
(592,350,cs),
(283,350,ls),
(200,350,o),
(133,417,o),
(133,500,cs),
(133,700,l),
(33,700,l),
(33,500,ls),
(33,362,o),
(145,250,o),
(283,250,cs),
(387,250,l),
(387,200,l),
(235,200,l),
(235,100,l),
(387,100,l),
(387,0,l),
(487,0,l),
(487,100,l),
(635,100,l),
(635,200,l),
(487,200,l),
(487,250,l),
(592,250,ls),
(730,250,o),
(842,362,o),
(842,500,cs)
);
}
);
width = 875;
}
);
unicode = 165;
},
{
glyphname = plus;
layers = (
{
layerId = "E5B5FB99-9938-4E00-AE85-C3C14992734E";
shapes = (
{
closed = 1;
nodes = (
(587,400,l),
(362,400,l),
(362,600,l),
(262,600,l),
(262,400,l),
(37,400,l),
(37,300,l),
(262,300,l),
(262,100,l),
(362,100,l),
(362,300,l),
(587,300,l)
);
}
);
width = 624;
}
);
unicode = 43;
},
{
glyphname = minus;
layers = (
{
layerId = "E5B5FB99-9938-4E00-AE85-C3C14992734E";
shapes = (
{
closed = 1;
nodes = (
(616,400,l),
(66,400,l),
(66,300,l),
(616,300,l)
);
}
);
width = 682;
}
);
unicode = 8722;
},
{
glyphname = multiply;
layers = (
{
layerId = "E5B5FB99-9938-4E00-AE85-C3C14992734E";
shapes = (
{
closed = 1;
nodes = (
(417,350,l),
(638,550,l),
(495,550,l),
(346,415,l),
(197,550,l),
(54,550,l),
(274,350,l),
(54,150,l),
(197,150,l),
(346,285,l),
(495,150,l),
(638,150,l)
);
}
);
width = 692;
}
);
unicode = 215;
},
{
glyphname = divide;
layers = (
{
layerId = "E5B5FB99-9938-4E00-AE85-C3C14992734E";
shapes = (
{
closed = 1;
nodes = (
(396,566,o),
(362,600,o),
(321,600,cs),
(280,600,o),
(246,566,o),
(246,525,cs),
(246,484,o),
(280,450,o),
(321,450,cs),
(362,450,o),
(396,484,o),
(396,525,cs)
);
},
{
closed = 1;
nodes = (
(596,400,l),
(46,400,l),
(46,300,l),
(596,300,l)
);
},
{
closed = 1;
nodes = (
(396,216,o),
(362,250,o),
(321,250,cs),
(280,250,o),
(246,216,o),
(246,175,cs),
(246,134,o),
(280,100,o),
(321,100,cs),
(362,100,o),
(396,134,o),
(396,175,cs)
);
}
);
width = 642;
}
);
unicode = 247;
},
{
glyphname = equal;
layers = (
{
layerId = "E5B5FB99-9938-4E00-AE85-C3C14992734E";
shapes = (
{
closed = 1;
nodes = (
(616,550,l),
(66,550,l),
(66,450,l),
(616,450,l)
);
},
{
closed = 1;
nodes = (
(616,250,l),
(66,250,l),
(66,150,l),
(616,150,l)
);
}
);
width = 682;
}
);
unicode = 61;
},
{
glyphname = notequal;
layers = (
{
layerId = "E5B5FB99-9938-4E00-AE85-C3C14992734E";
shapes = (
{
closed = 1;
nodes = (
(629,250,l),
(356,250,l),
(461,450,l),
(629,450,l),
(629,550,l),
(514,550,l),
(573,661,l),
(459,661,l),
(400,550,l),
(79,550,l),
(79,450,l),
(347,450,l),
(242,250,l),
(79,250,l),
(79,150,l),
(189,150,l),
(132,41,l),
(246,41,l),
(303,150,l),
(629,150,l)
);
}
);
width = 708;
}
);
unicode = 8800;
},
{
glyphname = greater;
layers = (
{
layerId = "E5B5FB99-9938-4E00-AE85-C3C14992734E";
shapes = (
{
closed = 1;
nodes = (
(53,620,l),
(371,336,l),
(54,58,l),
(185,58,l),
(460,298,ls),
(471,307,o),
(477,321,o),
(477,335,cs),
(477,349,o),
(471,363,o),
(460,373,cs),
(183,620,l)
);
}
);
width = 513;
}
);
unicode = 62;
},
{
glyphname = less;
layers = (
{
layerId = "E5B5FB99-9938-4E00-AE85-C3C14992734E";
shapes = (
{
closed = 1;
nodes = (
(330,620,l),
(53,373,ls),
(42,363,o),
(36,349,o),
(36,335,cs),
(36,321,o),
(42,307,o),
(53,298,cs),
(328,58,l),
(459,58,l),
(142,336,l),
(460,620,l)
);
}
);
width = 513;
}
);
unicode = 60;
},
{
glyphname = plusminus;
layers = (
{
layerId = "E5B5FB99-9938-4E00-AE85-C3C14992734E";
shapes = (
{
closed = 1;
nodes = (
(605,400,l),
(380,400,l),
(380,600,l),
(280,600,l),
(280,400,l),
(55,400,l),
(55,300,l),
(280,300,l),
(280,100,l),
(380,100,l),
(380,300,l),
(605,300,l)
);
},
{
closed = 1;
nodes = (
(605,0,l),
(55,0,l),
(55,-100,l),
(605,-100,l)
);
}
);
width = 660;
}
);
unicode = 177;
},
{
glyphname = approxequal;
layers = (
{
layerId = "E5B5FB99-9938-4E00-AE85-C3C14992734E";
shapes = (
{
closed = 1;
nodes = (
(595,325,l),
(569,298,o),
(515,269,o),
(470,269,cs),
(387,269,o),
(277,323,o),
(197,323,cs),
(153,323,o),
(95,301,o),
(68,273,c),
(68,170,l),
(93,196,o),
(148,225,o),
(193,225,cs),
(276,225,o),
(385,172,o),
(465,172,cs),
(517,172,o),
(568,194,o),
(595,221,c)
);
},
{
closed = 1;
nodes = (
(595,525,l),
(569,498,o),
(515,469,o),
(470,469,cs),
(387,469,o),
(277,523,o),
(197,523,cs),
(153,523,o),
(95,501,o),
(68,473,c),
(68,370,l),
(93,396,o),
(148,425,o),
(193,425,cs),
(276,425,o),
(385,372,o),
(465,372,cs),
(517,372,o),
(568,394,o),
(595,421,c)
);
}
);
width = 661;
}
);
unicode = 8776;
},
{
glyphname = asciitilde;
layers = (
{
layerId = "E5B5FB99-9938-4E00-AE85-C3C14992734E";
shapes = (
{
closed = 1;
nodes = (
(595,425,l),
(569,398,o),
(515,369,o),
(470,369,cs),
(387,369,o),
(277,423,o),
(197,423,cs),
(153,423,o),
(95,401,o),
(68,373,c),
(68,270,l),
(93,296,o),
(148,325,o),
(193,325,cs),
(276,325,o),
(385,272,o),
(465,272,cs),
(517,272,o),
(568,294,o),
(595,321,c)
);
}
);
width = 661;
}
);
unicode = 126;
},
{
glyphname = logicalnot;
layers = (
{
layerId = "E5B5FB99-9938-4E00-AE85-C3C14992734E";
shapes = (
{
closed = 1;
nodes = (
(515,400,l),
(57,400,l),
(57,301,l),
(416,301,l),
(416,114,l),
(515,114,l)
);
}
);
width = 587;
}
);
unicode = 172;
},
{
glyphname = asciicircum;
layers = (
{
layerId = "E5B5FB99-9938-4E00-AE85-C3C14992734E";
shapes = (
{
closed = 1;
nodes = (
(478,432,l),
(293,639,ls),
(283,650,o),
(269,656,o),
(255,656,cs),
(241,656,o),
(227,650,o),
(218,639,cs),
(40,436,l),
(100,373,l),
(256,550,l),
(415,372,l)
);
}
);
width = 516;
}
);
unicode = 94;
},
{
glyphname = integral;
layers = (
{
layerId = "E5B5FB99-9938-4E00-AE85-C3C14992734E";
shapes = (
{
closed = 1;
nodes = (
(599,750,l),
(531,750,l),
(388,749,o),
(258,641,o),
(258,500,cs),
(258,75,ls),
(258,-21,o),
(181,-99,o),
(85,-100,c),
(8,-100,l),
(8,-200,l),
(85,-200,l),
(228,-199,o),
(344,-90,o),
(357,50,c),
(358,50,l),
(358,475,ls),
(358,571,o),
(435,649,o),
(531,650,c),
(599,650,l)
);
}
);
width = 605;
}
);
unicode = 8747;
},
{
glyphname = partialdiff;
layers = (
{
layerId = "E5B5FB99-9938-4E00-AE85-C3C14992734E";
shapes = (
{
closed = 1;
nodes = (
(770,330,o),
(754,381,o),
(726,424,c),
(534,800,l),
(420,800,l),
(554,544,l),
(535,548,o),
(516,550,o),
(497,550,cs),
(293,550,ls),
(142,550,o),
(20,426,o),
(20,275,cs),
(20,124,o),
(142,1,o),
(293,0,c),
(497,0,l),
(648,1,o),
(770,124,o),
(770,275,cs)
);
},
{
closed = 1;
nodes = (
(670,179,o),
(593,100,o),
(497,100,cs),
(293,100,ls),
(197,100,o),
(120,179,o),
(120,275,cs),
(120,371,o),
(197,449,o),
(293,450,c),
(497,450,l),
(593,449,o),
(670,371,o),
(670,275,cs)
);
}
);
width = 805;
}
);
unicode = 8706;
},
{
glyphname = mu;
layers = (
{
layerId = "E5B5FB99-9938-4E00-AE85-C3C14992734E";
shapes = (
{
closed = 1;
nodes = (
(174,63,l),
(221,23,o),
(282,0,o),
(348,0,cs),
(403,0,ls),
(554,0,o),
(677,123,o),
(677,275,cs),
(677,550,l),
(577,550,l),
(577,275,ls),
(577,178,o),
(500,100,o),
(403,100,cs),
(348,100,ls),
(252,100,o),
(174,178,o),
(174,275,cs),
(174,550,l),
(74,550,l),
(74,275,ls),
(74,262,o),
(75,250,o),
(74,-175,c),
(174,-175,l)
);
}
);
width = 714;
}
);
unicode = 181;
},
{
glyphname = percent;
layers = (
{
layerId = "E5B5FB99-9938-4E00-AE85-C3C14992734E";
shapes = (
{
closed = 1;
nodes = (
(788,279,o),
(714,354,o),
(622,354,cs),
(530,354,o),
(455,279,o),
(455,188,cs),
(455,96,o),
(530,21,o),
(622,21,cs),
(714,21,o),
(788,96,o),
(788,188,cs)
);
},
{
closed = 1;
nodes = (
(556,658,l),
(173,30,l),
(269,30,l),
(652,658,l)
);
},
{
closed = 1;
nodes = (
(368,592,o),
(294,667,o),
(202,667,cs),
(110,667,o),
(35,592,o),
(35,500,cs),
(35,408,o),
(110,333,o),
(202,333,cs),
(294,333,o),
(368,408,o),
(368,500,cs)
);
},
{
closed = 1;
nodes = (
(705,142,o),
(668,104,o),
(622,104,cs),
(576,104,o),
(538,142,o),
(538,188,cs),
(538,233,o),
(576,271,o),
(622,271,cs),
(668,271,o),
(705,233,o),
(705,188,cs)
);
},
{
closed = 1;
nodes = (
(285,454,o),
(248,417,o),
(202,417,cs),
(156,417,o),
(118,454,o),
(118,500,cs),
(118,546,o),
(156,583,o),
(202,583,cs),
(248,583,o),
(285,546,o),
(285,500,cs)
);
}
);
width = 823;
}
);
unicode = 37;
},
{
glyphname = perthousand;
layers = (
{
layerId = "E5B5FB99-9938-4E00-AE85-C3C14992734E";
shapes = (
{
closed = 1;
nodes = (
(788,279,o),
(714,354,o),
(622,354,cs),
(530,354,o),
(455,279,o),
(455,188,cs),
(455,96,o),
(530,21,o),
(622,21,cs),
(714,21,o),
(788,96,o),
(788,188,cs)
);
},
{
closed = 1;
nodes = (
(556,658,l),
(173,30,l),
(269,30,l),
(652,658,l)
);
},
{
closed = 1;
nodes = (
(368,592,o),
(294,667,o),
(202,667,cs),
(110,667,o),
(35,592,o),
(35,500,cs),
(35,408,o),
(110,333,o),
(202,333,cs),
(294,333,o),
(368,408,o),
(368,500,cs)
);
},
{
closed = 1;
nodes = (
(705,142,o),
(668,104,o),
(622,104,cs),
(576,104,o),
(538,142,o),
(538,188,cs),
(538,233,o),
(576,271,o),
(622,271,cs),
(668,271,o),
(705,233,o),
(705,188,cs)
);
},
{
closed = 1;
nodes = (
(285,454,o),
(248,417,o),
(202,417,cs),
(156,417,o),
(118,454,o),
(118,500,cs),
(118,546,o),
(156,583,o),
(202,583,cs),
(248,583,o),
(285,546,o),
(285,500,cs)
);
},
{
closed = 1;
nodes = (
(1157,279,o),
(1083,354,o),
(991,354,cs),
(899,354,o),
(824,279,o),
(824,188,cs),
(824,96,o),
(899,21,o),
(991,21,cs),
(1083,21,o),
(1157,96,o),
(1157,188,cs)
);
},
{
closed = 1;
nodes = (
(1074,142,o),
(1037,104,o),
(991,104,cs),
(945,104,o),
(907,142,o),
(907,188,cs),
(907,233,o),
(945,271,o),
(991,271,cs),
(1037,271,o),
(1074,233,o),
(1074,188,cs)
);
}
);
width = 1192;
}
);
unicode = 8240;
},
{
glyphname = uni0312;
layers = (
{
layerId = "E5B5FB99-9938-4E00-AE85-C3C14992734E";
shapes = (
{
closed = 1;
nodes = (
(68,675,o),
(95,648,o),
(128,648,cs),
(161,648,o),
(188,675,o),
(188,708,cs),
(188,738,o),
(165,763,o),
(136,767,c),
(143,794,o),
(153,810,o),
(153,810,c),
(102,811,l),
(102,811,o),
(69,763,o),
(68,711,c)
);
}
);
width = 253;
}
);
unicode = 786;
},
{
glyphname = uni0315;
layers = (
{
layerId = "E5B5FB99-9938-4E00-AE85-C3C14992734E";
shapes = (
{
closed = 1;
nodes = (
(184,783,o),
(157,811,o),
(124,811,cs),
(91,811,o),
(64,783,o),
(64,751,cs),
(64,720,o),
(86,695,o),
(115,691,c),
(109,665,o),
(99,649,o),
(99,649,c),
(150,648,l),
(150,648,o),
(182,696,o),
(184,748,c)
);
}
);
width = 251;
}
);
unicode = 789;
},
{
glyphname = uni0326;
layers = (
{
layerId = "E5B5FB99-9938-4E00-AE85-C3C14992734E";
shapes = (
{
closed = 1;
nodes = (
(191,-118,o),
(164,-90,o),
(131,-90,cs),
(98,-90,o),
(71,-118,o),
(71,-150,cs),
(71,-181,o),
(93,-206,o),
(122,-210,c),
(116,-236,o),
(106,-252,o),
(106,-252,c),
(157,-253,l),
(157,-253,o),
(189,-205,o),
(191,-153,c)
);
}
);
width = 263;
}
);
unicode = 806;
},
{
glyphname = dieresis;
layers = (
{
layerId = "E5B5FB99-9938-4E00-AE85-C3C14992734E";
shapes = (
{
closed = 1;
nodes = (
(91,666,o),
(70,687,o),
(46,687,cs),
(21,687,o),
(0,666,o),
(0,642,cs),
(0,617,o),
(21,597,o),
(46,597,cs),
(70,597,o),
(91,617,o),
(91,642,cs)
);
},
{
closed = 1;
nodes = (
(254,666,o),
(233,687,o),
(208,687,cs),
(183,687,o),
(163,666,o),
(163,642,cs),
(163,617,o),
(183,597,o),
(208,597,cs),
(233,597,o),
(254,617,o),
(254,642,cs)
);
}
);
width = 254;
}
);
unicode = 168;
},
{
glyphname = dotaccent;
layers = (
{
layerId = "E5B5FB99-9938-4E00-AE85-C3C14992734E";
shapes = (
{
closed = 1;
nodes = (
(90,666,o),
(69,687,o),
(45,687,cs),
(20,687,o),
(0,666,o),
(0,642,cs),
(0,617,o),
(20,597,o),
(45,597,cs),
(69,597,o),
(90,617,o),
(90,642,cs)
);
}
);
width = 90;
}
);
unicode = 729;
},
{
glyphname = grave;
layers = (
{
layerId = "E5B5FB99-9938-4E00-AE85-C3C14992734E";
shapes = (
{
closed = 1;
nodes = (
(0,661,l),
(183,595,l),
(207,648,l),
(38,747,l)
);
}
);
width = 207;
}
);
unicode = 96;
},
{
glyphname = acute;
layers = (
{
layerId = "E5B5FB99-9938-4E00-AE85-C3C14992734E";
shapes = (
{
closed = 1;
nodes = (
(169,747,l),
(0,648,l),
(24,595,l),
(207,661,l)
);
}
);
width = 207;
}
);
unicode = 180;
},
{
glyphname = hungarumlaut;
layers = (
{
layerId = "E5B5FB99-9938-4E00-AE85-C3C14992734E";
shapes = (
{
closed = 1;
nodes = (
(113,725,l),
(0,624,l),
(20,591,l),
(153,657,l)
);
},
{
closed = 1;
nodes = (
(264,725,l),
(153,624,l),
(171,591,l),
(304,657,l)
);
}
);
width = 304;
}
);
unicode = 733;
},
{
glyphname = circumflex;
layers = (
{
layerId = "E5B5FB99-9938-4E00-AE85-C3C14992734E";
shapes = (
{
closed = 1;
nodes = (
(320,645,l),
(155,748,l),
(0,645,l),
(33,595,l),
(155,659,l),
(277,595,l)
);
}
);
width = 320;
}
);
unicode = 710;
},
{
glyphname = caron;
layers = (
{
layerId = "E5B5FB99-9938-4E00-AE85-C3C14992734E";
shapes = (
{
closed = 1;
nodes = (
(0,689,l),
(155,585,l),
(310,689,l),
(277,738,l),
(155,675,l),
(33,738,l)
);
}
);
width = 310;
}
);
unicode = 711;
},
{
glyphname = breve;
layers = (
{
layerId = "E5B5FB99-9938-4E00-AE85-C3C14992734E";
shapes = (
{
closed = 1;
nodes = (
(220,732,l),
(215,715,o),
(199,680,o),
(143,680,cs),
(87,680,o),
(72,715,o),
(66,732,c),
(0,732,l),
(2,697,o),
(22,598,o),
(143,598,cs),
(264,598,o),
(284,697,o),
(286,732,c)
);
}
);
width = 286;
}
);
unicode = 728;
},
{
glyphname = ring;
layers = (
{
layerId = "E5B5FB99-9938-4E00-AE85-C3C14992734E";
shapes = (
{
closed = 1;
nodes = (
(0,615,o),
(39,576,o),
(103,576,cs),
(166,576,o),
(206,615,o),
(206,661,cs),
(206,707,o),
(170,746,o),
(103,746,cs),
(43,746,o),
(0,707,o),
(0,661,cs)
);
},
{
closed = 1;
nodes = (
(69,680,o),
(80,695,o),
(103,695,cs),
(125,695,o),
(137,680,o),
(137,661,cs),
(137,642,o),
(125,627,o),
(103,627,cs),
(80,627,o),
(69,642,o),
(69,661,cs)
);
}
);
width = 206;
}
);
unicode = 730;
},
{
glyphname = tilde;
layers = (
{
layerId = "E5B5FB99-9938-4E00-AE85-C3C14992734E";
shapes = (
{
closed = 1;
nodes = (
(215,714,l),
(215,704,o),
(212,672,o),
(184,672,cs),
(151,672,o),
(134,714,o),
(89,714,cs),
(42,714,o),
(0,674,o),
(0,594,c),
(62,594,l),
(63,603,o),
(66,636,o),
(94,636,cs),
(125,636,o),
(138,594,o),
(189,594,cs),
(238,594,o),
(278,624,o),
(278,714,c)
);
}
);
width = 278;
}
);
unicode = 732;
},
{
glyphname = macron;
layers = (
{
layerId = "E5B5FB99-9938-4E00-AE85-C3C14992734E";
shapes = (
{
closed = 1;
nodes = (
(236,602,l),
(236,684,l),
(0,684,l),
(0,602,l)
);
}
);
width = 236;
}
);
unicode = 175;
},
{
glyphname = cedilla;
layers = (
{
layerId = "E5B5FB99-9938-4E00-AE85-C3C14992734E";
shapes = (
{
closed = 1;
nodes = (
(128,7,l),
(73,7,l),
(43,-73,l),
(53,-71,o),
(65,-69,o),
(76,-69,cs),
(91,-69,o),
(117,-72,o),
(117,-87,cs),
(117,-99,o),
(97,-105,o),
(71,-105,cs),
(45,-105,o),
(18,-98,o),
(0,-89,c),
(0,-151,l),
(18,-153,o),
(31,-159,o),
(79,-159,cs),
(131,-159,o),
(190,-142,o),
(190,-88,cs),
(190,-35,o),
(144,-24,o),
(116,-24,c)
);
}
);
width = 190;
}
);
unicode = 184;
},
{
glyphname = ogonek;
layers = (
{
layerId = "E5B5FB99-9938-4E00-AE85-C3C14992734E";
shapes = (
{
closed = 1;
nodes = (
(54,8,l),
(14,-13,o),
(0,-58,o),
(0,-85,cs),
(0,-134,o),
(41,-151,o),
(91,-151,cs),
(144,-151,o),
(172,-140,o),
(190,-135,c),
(190,-70,l),
(172,-77,o),
(136,-88,o),
(113,-88,cs),
(86,-88,o),
(75,-81,o),
(75,-64,cs),
(75,-41,o),
(93,-13,o),
(122,8,c)
);
}
